<svg width="64" height="64" viewBox="0 0 64 64" fill="none" xmlns="http://www.w3.org/2000/svg">
<path d="M26.1087 56H18.4017L22.4085 40H14.1285C13.3283 39.9997 12.5393 39.8125 11.8245 39.4534C11.1097 39.0943 10.4889 38.5733 10.0118 37.932C9.53467 37.2907 9.21442 36.5469 9.07663 35.76C8.93885 34.9731 8.98734 34.1649 9.21825 33.4L16.9132 8H35.8792L29.8691 24H37.9287C38.8456 24.0006 39.7453 24.2492 40.5321 24.7194C41.3189 25.1897 41.9633 25.8639 42.3969 26.6706C42.8305 27.4772 43.037 28.3861 42.9946 29.3005C42.9521 30.215 42.6623 31.1009 42.1558 31.864L26.1087 56Z" fill="#D2D2D2"/>
<rect x="33" y="49" width="22" height="8" rx="3" fill="#D2D2D2" stroke="#FBFBFB" stroke-width="2"/>
<rect x="33" y="41" width="22" height="8" rx="3" fill="#D2D2D2" stroke="#FBFBFB" stroke-width="2"/>
<rect x="33" y="33" width="22" height="8" rx="3" fill="#D2D2D2" stroke="#FBFBFB" stroke-width="2"/>
</svg>
