<svg width="24" height="24" viewBox="0 0 24 24" fill="none" xmlns="http://www.w3.org/2000/svg">
<g clip-path="url(#clip0_712_4476)">
<path d="M10.6667 12C7.90917 12 5.66667 9.7575 5.66667 7C5.66667 4.2425 7.90917 2 10.6667 2C13.4242 2 15.6667 4.2425 15.6667 7C15.6667 9.7575 13.4242 12 10.6667 12ZM22.75 17C22.75 16.6167 22.6758 16.2542 22.5683 15.9058L23.7483 15.2258L22.9167 13.7817L21.7408 14.4592C21.2367 13.9158 20.58 13.5217 19.8333 13.3508V12H18.1667V13.3508C17.42 13.5217 16.7625 13.9158 16.2592 14.4592L15.0833 13.7817L14.2517 15.2258L15.4317 15.9058C15.3242 16.2542 15.25 16.6167 15.25 17C15.25 17.3833 15.3242 17.7458 15.4317 18.0942L14.2517 18.7742L15.0833 20.2183L16.2592 19.5408C16.7633 20.0842 17.42 20.4783 18.1667 20.6492V22H19.8333V20.6492C20.58 20.4783 21.2375 20.0842 21.7408 19.5408L22.9167 20.2183L23.7483 18.7742L22.5683 18.0942C22.6758 17.7458 22.75 17.3833 22.75 17ZM19 18.25C18.3108 18.25 17.75 17.6892 17.75 17C17.75 16.3108 18.3108 15.75 19 15.75C19.6892 15.75 20.25 16.3108 20.25 17C20.25 17.6892 19.6892 18.25 19 18.25ZM12.3333 17C12.3333 15.7842 12.6642 14.6483 13.2325 13.6667H7.75C5.6825 13.6667 4 15.3492 4 17.4167V22H14.6008C13.2133 20.7783 12.3333 18.9942 12.3333 17Z" fill="white"/>
</g>
<defs>
<clipPath id="clip0_712_4476">
<rect width="20" height="20" fill="white" transform="translate(4 2)"/>
</clipPath>
</defs>
</svg>
