<svg width="36" height="36" viewBox="0 0 36 36" fill="none" xmlns="http://www.w3.org/2000/svg">
<path d="M10.6875 14.7656H0V32.8359C0 34.5806 1.4194 36 3.16406 36H11.7451C11.0815 35.118 10.6875 34.0222 10.6875 32.8359V14.7656ZM6.32812 23.5547C6.32812 24.1372 5.85591 24.6094 5.27344 24.6094C4.69097 24.6094 4.21875 24.1372 4.21875 23.5547V17.9297C4.21875 17.3472 4.69097 16.875 5.27344 16.875C5.85591 16.875 6.32812 17.3472 6.32812 17.9297V23.5547Z" fill="#002C5F"/>
<path d="M21.7969 5.0625V3.16406C21.7969 1.4194 20.3775 0 18.6328 0H3.16406C1.4194 0 0 1.4194 0 3.16406V12.6562H10.6875V10.3359C10.6875 7.42816 13.0532 5.0625 15.9609 5.0625H21.7969ZM6.32812 9.49219C6.32812 10.0747 5.85591 10.5469 5.27344 10.5469C4.69097 10.5469 4.21875 10.0747 4.21875 9.49219V6.67969C4.21875 6.09722 4.69097 5.625 5.27344 5.625C5.85591 5.625 6.32812 6.09722 6.32812 6.67969V9.49219Z" fill="#002C5F"/>
<path d="M32.8359 7.17188H15.9609C14.2163 7.17188 12.7969 8.59127 12.7969 10.3359V14.2031H36V10.3359C36 8.59127 34.5806 7.17188 32.8359 7.17188ZM26.5078 11.7422C25.9253 11.7422 25.4531 11.27 25.4531 10.6875C25.4531 10.105 25.9253 9.63281 26.5078 9.63281C27.0903 9.63281 27.5625 10.105 27.5625 10.6875C27.5625 11.27 27.0903 11.7422 26.5078 11.7422ZM30.7266 11.7422C30.1441 11.7422 29.6719 11.27 29.6719 10.6875C29.6719 10.105 30.1441 9.63281 30.7266 9.63281C31.309 9.63281 31.7812 10.105 31.7812 10.6875C31.7812 11.27 31.309 11.7422 30.7266 11.7422Z" fill="#002C5F"/>
<path d="M24.3984 29.6719C26.9226 29.6719 28.9688 27.6257 28.9688 25.1016C28.9688 22.5774 26.9226 20.5312 24.3984 20.5312C21.8743 20.5312 19.8281 22.5774 19.8281 25.1016C19.8281 27.6257 21.8743 29.6719 24.3984 29.6719Z" fill="#002C5F"/>
<path d="M12.7969 32.8359C12.7969 34.5806 14.2163 36 15.9609 36H32.8359C34.5806 36 36 34.5806 36 32.8359V16.3125H12.7969V32.8359ZM24.3984 18.4219C28.0816 18.4219 31.0781 21.4184 31.0781 25.1016C31.0781 28.7847 28.0816 31.7812 24.3984 31.7812C20.7153 31.7812 17.7188 28.7847 17.7188 25.1016C17.7188 21.4184 20.7153 18.4219 24.3984 18.4219Z" fill="#002C5F"/>
</svg>
