<svg width="40" height="18" viewBox="0 0 40 18" fill="none" xmlns="http://www.w3.org/2000/svg">
<rect width="40" height="18" fill="#E63312"/>
<path d="M18.12 10.276L16.536 10.096C16.956 8.008 16.98 6.472 16.98 5.188H10.536V3.928H18.564V4.984C18.564 6.364 18.564 7.924 18.12 10.276ZM14.64 11.428H19.524V12.7H9.528V11.428H13.056V7.624H14.64V11.428ZM27.1431 7.996L26.3871 9.22C25.1751 8.86 24.3351 8.128 23.8551 7.216C23.3631 8.308 22.4871 9.184 21.1911 9.604L20.3991 8.368C22.1871 7.768 22.9791 6.364 23.0031 4.984H20.8071V3.712H26.7831V4.984H24.6231C24.6471 6.244 25.4031 7.48 27.1431 7.996ZM25.6431 12.82C27.0471 12.82 27.8031 12.52 27.8031 11.896C27.8031 11.26 27.0471 10.96 25.6431 10.96C24.2271 10.96 23.4711 11.26 23.4711 11.896C23.4711 12.52 24.2271 12.82 25.6431 12.82ZM25.6431 9.736C27.9351 9.736 29.3751 10.54 29.3751 11.896C29.3751 13.24 27.9351 14.032 25.6431 14.032C23.3391 14.032 21.8991 13.24 21.8991 11.896C21.8991 10.54 23.3391 9.736 25.6431 9.736ZM29.2551 5.524H30.7191V6.82H29.2551V9.544H27.6711V2.98H29.2551V5.524Z" fill="white"/>
</svg>
