<svg width="16" height="16" viewBox="0 0 16 16" fill="none" xmlns="http://www.w3.org/2000/svg">
<path d="M2.35117 5H13.6484C13.7862 5 13.9174 4.94325 14.0119 4.84325C14.1064 4.74325 14.1554 4.60875 14.1477 4.47125L14.1414 4.3415C14.0602 3.0285 12.9627 2 11.6424 2H10.9999V1.5C10.9999 1.224 10.7759 1 10.4999 1C10.2239 1 9.99992 1.224 9.99992 1.5V2H5.99992V1.5C5.99992 1.224 5.77592 1 5.49992 1C5.22392 1 4.99992 1.224 4.99992 1.5V2H4.35742C3.03717 2 1.93942 3.02875 1.85817 4.3425L1.85192 4.4715C1.84392 4.60875 1.89317 4.74325 1.98742 4.8435C2.08167 4.94375 2.21367 5 2.35117 5Z" fill="#999999"/>
<path d="M14.2258 6.4875C14.2193 6.21625 13.9973 6 13.7261 6H2.27356C2.00231 6 1.78056 6.21625 1.77356 6.4875C1.72881 8.27875 1.76056 10.0637 1.86806 11.7935C1.94606 13.0485 2.95131 14.0535 4.20581 14.1315C5.46481 14.2105 6.73231 14.25 7.99981 14.25C9.26706 14.25 10.5351 14.2105 11.7933 14.1313C13.0483 14.0533 14.0533 13.048 14.1316 11.7933C14.2391 10.0638 14.2708 8.2785 14.2258 6.4875ZM10.4998 9C10.0856 9 9.74981 8.66425 9.74981 8.25C9.74981 7.83575 10.0856 7.5 10.4998 7.5C10.9141 7.5 11.2498 7.83575 11.2498 8.25C11.2498 8.66425 10.9141 9 10.4998 9ZM11.2498 10.75C11.2498 11.1642 10.9141 11.5 10.4998 11.5C10.0856 11.5 9.74981 11.1642 9.74981 10.75C9.74981 10.3358 10.0856 10 10.4998 10C10.9141 10 11.2498 10.3358 11.2498 10.75ZM5.49981 10C5.91406 10 6.24981 10.3358 6.24981 10.75C6.24981 11.1642 5.91406 11.5 5.49981 11.5C5.08556 11.5 4.74981 11.1642 4.74981 10.75C4.74981 10.3358 5.08556 10 5.49981 10ZM4.74981 8.25C4.74981 7.83575 5.08556 7.5 5.49981 7.5C5.91406 7.5 6.24981 7.83575 6.24981 8.25C6.24981 8.66425 5.91406 9 5.49981 9C5.08556 9 4.74981 8.66425 4.74981 8.25ZM7.24981 10.75C7.24981 10.3358 7.58556 10 7.99981 10C8.41406 10 8.74981 10.3358 8.74981 10.75C8.74981 11.1642 8.41406 11.5 7.99981 11.5C7.58556 11.5 7.24981 11.1642 7.24981 10.75ZM7.99981 9C7.58556 9 7.24981 8.66425 7.24981 8.25C7.24981 7.83575 7.58556 7.5 7.99981 7.5C8.41406 7.5 8.74981 7.83575 8.74981 8.25C8.74981 8.66425 8.41406 9 7.99981 9Z" fill="#999999"/>
</svg>
