<svg width="64" height="64" viewBox="0 0 64 64" fill="none" xmlns="http://www.w3.org/2000/svg">
<g clip-path="url(#clip0_2818_75938)">
<path d="M52.3798 16.0502C51.9259 14.8155 51.1046 13.7495 50.0266 12.9957C48.9486 12.2418 47.6655 11.8362 46.35 11.8335H27.65C26.3467 11.8325 25.0742 12.2291 24.0023 12.9705C22.9304 13.7118 22.1103 14.7625 21.6513 15.9823L17.6932 25.9502C15.9087 30.8452 14.9971 36.0154 15 41.2255V46.6668H20.5V52.1668H27.8333V46.6668H46.1667V52.1668H53.5V46.6668H59V41.2255C59.001 35.9875 58.08 30.7901 56.2793 25.8713L52.3798 16.0502ZM46.1667 38.4168C46.1667 37.6875 46.4564 36.988 46.9721 36.4723C47.4879 35.9566 48.1873 35.6668 48.9167 35.6668C49.646 35.6668 50.3455 35.9566 50.8612 36.4723C51.3769 36.988 51.6667 37.6875 51.6667 38.4168C51.6667 39.1462 51.3769 39.8456 50.8612 40.3614C50.3455 40.8771 49.646 41.1668 48.9167 41.1668C48.1873 41.1668 47.4879 40.8771 46.9721 40.3614C46.4564 39.8456 46.1667 39.1462 46.1667 38.4168ZM22.8302 27.9027L26.792 17.9367C26.8561 17.7604 26.9728 17.6081 27.1262 17.5003C27.2796 17.3924 27.4625 17.3342 27.65 17.3335H46.35C46.5508 17.3385 46.7448 17.4068 46.9045 17.5286C47.0642 17.6504 47.1813 17.8195 47.2392 18.0118L51.1405 27.8275C51.421 28.5993 51.663 29.3803 51.8848 30.1668H22.1097C22.3333 29.4042 22.5607 28.647 22.8302 27.9027ZM25.0833 41.1668C24.354 41.1668 23.6545 40.8771 23.1388 40.3614C22.6231 39.8456 22.3333 39.1462 22.3333 38.4168C22.3333 37.6875 22.6231 36.988 23.1388 36.4723C23.6545 35.9566 24.354 35.6668 25.0833 35.6668C25.8127 35.6668 26.5122 35.9566 27.0279 36.4723C27.5436 36.988 27.8333 37.6875 27.8333 38.4168C27.8333 39.1462 27.5436 39.8456 27.0279 40.3614C26.5122 40.8771 25.8127 41.1668 25.0833 41.1668Z" fill="#D2D2D2"/>
</g>
<defs>
<clipPath id="clip0_2818_75938">
<rect width="44" height="44" fill="white" transform="translate(15 10)"/>
</clipPath>
</defs>
</svg>
