<svg width="40" height="18" viewBox="0 0 40 18" fill="none" xmlns="http://www.w3.org/2000/svg">
<rect width="40" height="18" fill="#14D378"/>
<path d="M4.404 7.936L3.936 6.76C6.252 6.616 7.332 5.944 7.572 5.212H4.464V3.976H7.704V3.004H9.288V3.976H12.54V5.212H9.432C9.672 5.944 10.752 6.616 13.068 6.76L12.6 7.936C10.572 7.792 9.192 7.228 8.508 6.352C7.812 7.228 6.432 7.792 4.404 7.936ZM10.716 12.16C10.716 11.656 9.984 11.452 8.484 11.452C6.984 11.452 6.252 11.656 6.252 12.16C6.252 12.652 6.984 12.868 8.484 12.868C9.984 12.868 10.716 12.652 10.716 12.16ZM13.5 9.532H9.288V10.312C11.208 10.456 12.324 11.092 12.324 12.16C12.324 13.372 10.896 14.032 8.484 14.032C6.072 14.032 4.656 13.372 4.656 12.16C4.656 11.092 5.772 10.456 7.704 10.312V9.532H3.516V8.296H13.5V9.532ZM20.4831 5.836H22.2111V2.98H23.7951V11.044H22.2111V7.12H20.4831V5.836ZM21.2151 8.38L20.4471 9.616C19.2351 9.22 18.4191 8.428 17.9391 7.432C17.4471 8.524 16.5831 9.4 15.2991 9.832L14.4951 8.572C16.3071 7.984 17.0991 6.532 17.0991 5.14V4.984H14.9271V3.724H20.8671V4.984H18.7191V5.128C18.7191 6.436 19.4751 7.792 21.2151 8.38ZM18.0951 12.58H24.0471V13.84H16.5111V10.372H18.0951V12.58ZM26.5541 7.564L26.0261 6.34C28.0781 6.16 29.1581 5.44 29.4341 4.696H26.5061V3.436H34.6781V4.696H31.7381C32.0141 5.44 33.0941 6.16 35.1581 6.34L34.6061 7.564C32.5301 7.384 31.1741 6.604 30.5861 5.56C29.9981 6.604 28.6421 7.384 26.5541 7.564ZM32.7941 12.04C32.7941 11.476 32.0381 11.236 30.5621 11.236C29.0861 11.236 28.3301 11.476 28.3301 12.04C28.3301 12.592 29.0861 12.832 30.5621 12.832C32.0381 12.832 32.7941 12.592 32.7941 12.04ZM35.5781 9.256H31.3781V10.072C33.2741 10.228 34.4021 10.912 34.4021 12.04C34.4021 13.312 32.9501 14.032 30.5621 14.032C28.1741 14.032 26.7341 13.312 26.7341 12.04C26.7341 10.9 27.8741 10.216 29.7941 10.06V9.256H25.5941V7.996H35.5781V9.256Z" fill="white"/>
</svg>
