<svg width="64" height="64" viewBox="0 0 64 64" fill="none" xmlns="http://www.w3.org/2000/svg">
<path d="M59 12C58.4696 12 57.9609 12.2107 57.5858 12.5858C57.2107 12.9609 57 13.4696 57 14V16H53V14C53 13.4696 52.7893 12.9609 52.4142 12.5858C52.0391 12.2107 51.5304 12 51 12C50.4696 12 49.9609 12.2107 49.5858 12.5858C49.2107 12.9609 49 13.4696 49 14V19C48.9998 20.1527 49.3978 21.27 50.1267 22.1629C50.8556 23.0558 51.8706 23.6695 53 23.9V42C53 43.0609 52.5786 44.0783 51.8284 44.8284C51.0783 45.5786 50.0609 46 49 46H45V30H41C40.4696 30 39.9609 29.7893 39.5858 29.4142C39.2107 29.0391 39 28.5304 39 28C39 27.4696 39.2107 26.9609 39.5858 26.5858C39.9609 26.2107 40.4696 26 41 26H45V18C44.9968 15.3488 43.9422 12.8071 42.0676 10.9324C40.1929 9.05776 37.6512 8.00318 35 8L23 8C20.3488 8.00318 17.8071 9.05776 15.9324 10.9324C14.0578 12.8071 13.0032 15.3488 13 18L13 26H17C17.5304 26 18.0391 26.2107 18.4142 26.5858C18.7893 26.9609 19 27.4696 19 28C19 28.5304 18.7893 29.0391 18.4142 29.4142C18.0391 29.7893 17.5304 30 17 30H13V46C13.0032 48.6512 14.0578 51.1929 15.9324 53.0676C17.8071 54.9422 20.3488 55.9968 23 56H35C36.9451 55.9977 38.8475 55.4292 40.4748 54.3637C42.1022 53.2982 43.3841 51.7819 44.164 50H49C51.1217 50 53.1566 49.1571 54.6569 47.6569C56.1571 46.1566 57 44.1217 57 42V23.9C58.1294 23.6695 59.1444 23.0558 59.8733 22.1629C60.6022 21.27 61.0002 20.1527 61 19V14C61 13.4696 60.7893 12.9609 60.4142 12.5858C60.0391 12.2107 59.5304 12 59 12ZM34.464 30.98L30.7 37.054C30.4205 37.5049 29.9733 37.8262 29.4568 37.9474C28.9403 38.0685 28.3969 37.9795 27.946 37.7C27.4951 37.4205 27.1738 36.9733 27.0526 36.4568C26.9315 35.9403 27.0205 35.3969 27.3 34.946L30.366 30H26.23C25.7257 30.0002 25.2285 29.8823 24.778 29.6556C24.3275 29.429 23.9364 29.1 23.636 28.695C23.3356 28.29 23.1343 27.8203 23.0482 27.3234C22.962 26.8266 22.9935 26.3165 23.14 25.834C23.1865 25.6701 23.2537 25.5128 23.34 25.366L27.296 18.952C27.4259 18.7133 27.6031 18.5036 27.8167 18.3356C28.0303 18.1677 28.276 18.045 28.5386 17.9752C28.8012 17.9053 29.0753 17.8897 29.3441 17.9293C29.613 17.9689 29.871 18.0628 30.1023 18.2054C30.3336 18.3481 30.5335 18.5363 30.6896 18.7587C30.8458 18.9811 30.9549 19.233 31.0105 19.499C31.0661 19.765 31.0668 20.0396 31.0128 20.3059C30.9587 20.5722 30.8509 20.8247 30.696 21.048L27.656 26H31.8C32.3808 25.9977 32.9513 26.1535 33.4502 26.4507C33.9492 26.7479 34.3579 27.1753 34.6325 27.687C34.9071 28.1988 35.0373 28.7757 35.009 29.3558C34.9807 29.9359 34.7951 30.4974 34.472 30.98H34.464Z" fill="#D2D2D2"/>
</svg>
