<svg width="36" height="36" viewBox="0 0 36 36" fill="none" xmlns="http://www.w3.org/2000/svg">
<path d="M25.7919 18.3762C26.8385 18.7116 27.8069 19.2641 28.6359 20.0031C30.1156 18.9142 31.0781 17.1614 31.0781 15.1875C31.0781 11.892 28.397 9.21094 25.1015 9.21094C23.4468 9.21094 21.9033 9.89318 20.7965 11.0424C23.3284 12.6823 25.1754 15.2985 25.7919 18.3762Z" fill="#002C5F"/>
<path d="M23.3789 31.7109H5.80078C2.6022 31.7109 0 29.1087 0 25.9102C0 22.8848 2.32819 20.3929 5.28694 20.1319C5.54998 15.2286 9.62206 11.3203 14.5898 11.3203C19.5576 11.3203 23.6297 15.2286 23.8928 20.1319C26.8515 20.3929 29.1797 22.8848 29.1797 25.9102C29.1797 29.1087 26.5774 31.7109 23.3789 31.7109Z" fill="#002C5F"/>
<path d="M34.9453 16.2422H33.5391C32.9566 16.2422 32.4844 15.77 32.4844 15.1875C32.4844 14.605 32.9566 14.1328 33.5391 14.1328H34.9453C35.5278 14.1328 36 14.605 36 15.1875C36 15.77 35.5278 16.2422 34.9453 16.2422Z" fill="#002C5F"/>
<path d="M30.322 9.96718C29.9101 9.55529 29.9101 8.88746 30.322 8.47564L31.3163 7.48128C31.7282 7.06939 32.396 7.06939 32.8079 7.48128C33.2198 7.89317 33.2198 8.56093 32.8079 8.97282L31.8135 9.96718C31.4017 10.3791 30.7339 10.3791 30.322 9.96718Z" fill="#002C5F"/>
<path d="M25.1016 7.80469C24.5191 7.80469 24.0469 7.33247 24.0469 6.75V5.34375C24.0469 4.76128 24.5191 4.28906 25.1016 4.28906C25.684 4.28906 26.1562 4.76128 26.1562 5.34375V6.75C26.1562 7.33247 25.684 7.80469 25.1016 7.80469Z" fill="#002C5F"/>
<path d="M18.3896 9.96718L17.3952 8.97282C16.9833 8.56093 16.9833 7.89317 17.3952 7.48128C17.8071 7.06939 18.4749 7.06939 18.8868 7.48128L19.8811 8.47564C20.293 8.88753 20.293 9.55529 19.8811 9.96718C19.4693 10.3791 18.8015 10.3791 18.3896 9.96718Z" fill="#002C5F"/>
<path d="M31.3165 22.8939L30.3221 21.8996C29.9102 21.4877 29.9102 20.8199 30.3221 20.408C30.734 19.9961 31.4017 19.9961 31.8136 20.408L32.808 21.4024C33.2199 21.8143 33.2199 22.482 32.808 22.8939C32.3961 23.3058 31.7283 23.3058 31.3165 22.8939Z" fill="#002C5F"/>
</svg>
