<svg width="50" height="28" viewBox="0 0 50 28" fill="none" xmlns="http://www.w3.org/2000/svg">
<rect width="50" height="28" fill="#4D5BD4"/>
<path d="M19.712 10.648V14.024H18.48V6.104H19.712V9.576H21.696V5.848H22.96V14.536H21.696V10.648H19.712ZM17.488 11.688L17.632 12.776C15.728 13.16 14.16 13.24 12.48 13.24H11.568V6.984H12.864V12.136C14.352 12.12 15.792 12.024 17.488 11.688ZM18.224 19.128C20.368 19.128 21.728 18.504 21.728 17.464C21.728 16.408 20.368 15.784 18.224 15.784C16.08 15.784 14.736 16.408 14.736 17.464C14.736 18.504 16.08 19.128 18.224 19.128ZM18.224 14.76C21.168 14.76 23.024 15.752 23.024 17.464C23.024 19.16 21.168 20.168 18.224 20.168C15.296 20.168 13.44 19.16 13.44 17.464C13.44 15.752 15.296 14.76 18.224 14.76ZM31.5188 12.296V9.928H27.4548V12.296H31.5188ZM32.7987 6.744V13.352H26.1588V6.744H27.4548V8.904H31.5188V6.744H32.7987ZM32.1428 19.144C34.2548 19.144 35.5508 18.536 35.5508 17.512C35.5508 16.488 34.2548 15.896 32.1428 15.896C29.9988 15.896 28.7188 16.488 28.7188 17.512C28.7188 18.536 29.9988 19.144 32.1428 19.144ZM32.1428 14.84C35.0548 14.84 36.8628 15.816 36.8628 17.512C36.8628 19.208 35.0548 20.184 32.1428 20.184C29.2148 20.184 27.4068 19.208 27.4068 17.512C27.4068 15.816 29.2148 14.84 32.1428 14.84ZM36.7028 9.448H38.8308V10.536H36.7028V14.472H35.3908V5.832H36.7028V9.448Z" fill="white"/>
</svg>
