<svg width="64" height="64" viewBox="0 0 64 64" fill="none" xmlns="http://www.w3.org/2000/svg">
<path d="M49.7976 33.2869L41.7949 35.4302L38.7102 33.6507V30.3115L41.7597 28.5603L49.7974 30.714C49.9589 30.7571 50.1213 30.7784 50.2822 30.7784C51.1078 30.7784 51.8633 30.227 52.0864 29.3918C52.3538 28.3937 51.762 27.368 50.764 27.1009L46.3576 25.9202L50.4197 23.5881C51.315 23.0738 51.6249 21.9307 51.1105 21.035C50.5945 20.1392 49.4536 19.8289 48.5579 20.3444L44.4874 22.6821L45.6678 18.2741C45.9349 17.2763 45.344 16.2504 44.3455 15.9833C43.3537 15.7231 42.3238 16.3083 42.0563 17.3055L39.9115 25.3085L36.843 27.0708L33.934 25.3889V21.8598L39.8166 15.9774C40.5468 15.2468 40.5468 14.0634 39.8166 13.3326C39.0861 12.6021 37.903 12.6021 37.172 13.3326L33.934 16.5705V11.8701C33.9341 10.8374 33.0966 10 32.0638 10C31.0312 10 30.1937 10.8373 30.1937 11.8701V16.5473L26.9794 13.3326C26.2488 12.6021 25.0654 12.6021 24.3347 13.3326C23.6042 14.0633 23.6042 15.2467 24.3347 15.9774L30.1937 21.8363V25.4025L27.3069 27.0679L24.2383 25.3073L22.095 17.3056C21.828 16.3084 20.803 15.7216 19.8059 15.9834C18.808 16.2505 18.2158 17.2764 18.4832 18.2742L19.6634 22.6814L15.5931 20.3444C14.6958 19.8288 13.5536 20.1385 13.0401 21.0354C12.5262 21.9313 12.8361 23.0737 13.7317 23.588L17.7935 25.9201L13.3869 27.1008C12.3889 27.3679 11.7969 28.3936 12.0642 29.3917C12.2879 30.2269 13.0432 30.7783 13.8689 30.7783C14.0297 30.7783 14.1921 30.757 14.3542 30.7139L22.3929 28.5595L25.439 30.3083L25.4421 33.6506L22.3564 35.4333L14.3542 33.2869C13.3632 33.0268 12.3318 33.6127 12.0642 34.6094C11.7969 35.6071 12.3889 36.6332 13.3869 36.8988L17.7773 38.0764L13.7271 40.4145C12.833 40.9313 12.5262 42.0741 13.0433 42.9683C13.3897 43.5701 14.0181 43.9033 14.6637 43.9033C14.9807 43.9033 15.3024 43.8245 15.5971 43.652L19.6679 41.3028L18.4832 45.7269C18.2158 46.7263 18.808 47.7491 19.8059 48.0179C19.9675 48.0616 20.1298 48.0824 20.2907 48.0824C21.116 48.0824 21.8714 47.5301 22.095 46.6943L24.2489 38.6582L27.3124 36.8906L30.1937 38.5532V42.165L24.3347 48.0241C23.6042 48.7546 23.6042 49.9378 24.3347 50.6687C24.7 51.034 25.1777 51.215 25.657 51.215C26.1347 51.215 26.614 51.034 26.9794 50.6687L30.1937 47.4542V52.1298C30.1937 53.1644 31.0312 54 32.0638 54C33.0966 54 33.9341 53.1642 33.9341 52.1298V47.4309L37.1721 50.6687C37.5373 51.034 38.015 51.215 38.4944 51.215C38.9737 51.215 39.4514 51.034 39.8166 50.6687C40.5469 49.938 40.5469 48.7547 39.8166 48.0241L33.9341 42.1416V38.5676L36.8402 36.8904L39.9028 38.658L42.0567 46.6942C42.2801 47.5299 43.0354 48.0822 43.8606 48.0822C44.021 48.0822 44.1838 48.0615 44.3457 48.0177C45.3442 47.749 45.935 46.7262 45.668 45.7267L44.4819 41.3026L48.5542 43.6518C48.849 43.8241 49.1707 43.9031 49.4877 43.9031C50.1333 43.9031 50.7616 43.5699 51.1081 42.9681C51.6251 42.0739 51.3184 40.9313 50.4243 40.4143L46.374 38.0766L50.7643 36.8989C51.7623 36.6333 52.3541 35.6071 52.0867 34.6096C51.8209 33.6127 50.7938 33.0256 49.7976 33.2869ZM34.9699 33.6507L32.0755 35.3224L29.1832 33.6506L29.18 30.3054L32.0755 28.6349L34.9699 30.3078V33.6507Z" fill="#D2D2D2"/>
</svg>
