<svg width="64" height="64" viewBox="0 0 64 64" fill="none" xmlns="http://www.w3.org/2000/svg">
<g clip-path="url(#clip0_2818_73690)">
<path d="M32 21C44.1503 21 54 18.5376 54 15.5C54 12.4624 44.1503 10 32 10C19.8497 10 10 12.4624 10 15.5C10 18.5376 19.8497 21 32 21Z" fill="#CACACA"/>
<path d="M32 24.667C19.8505 24.667 10 22.2048 10 19.167V32.0003C10 35.0382 19.8505 37.5003 32 37.5003C44.1495 37.5003 54 35.0382 54 32.0003V19.167C54 22.2048 44.1495 24.667 32 24.667ZM16.4167 32.0003C14.8987 32.0003 13.6667 30.7683 13.6667 29.2503C13.6667 27.7323 14.8987 26.5003 16.4167 26.5003C17.9347 26.5003 19.1667 27.7323 19.1667 29.2503C19.1667 30.7683 17.9347 32.0003 16.4167 32.0003Z" fill="#CACACA"/>
<path d="M32 41.167C19.8505 41.167 10 38.7048 10 35.667V48.5003C10 51.5382 19.8505 54.0003 32 54.0003C44.1495 54.0003 54 51.5382 54 48.5003V35.667C54 38.7048 44.1495 41.167 32 41.167ZM16.4167 48.5003C14.8987 48.5003 13.6667 47.2683 13.6667 45.7503C13.6667 44.2323 14.8987 43.0003 16.4167 43.0003C17.9347 43.0003 19.1667 44.2323 19.1667 45.7503C19.1667 47.2683 17.9347 48.5003 16.4167 48.5003Z" fill="#CACACA"/>
</g>
<path d="M60.4224 46.1038L60.4222 46.104L50.2115 58.3805L50.2048 58.3886L50.1979 58.3965C49.9322 58.7026 49.5685 58.9073 49.1687 58.9752L49.0011 57.9894L49.1686 58.9752C48.7687 59.0432 48.3578 58.9702 48.0058 58.7688C47.6539 58.5675 47.3829 58.2504 47.2385 57.8719L48.1711 57.5162L47.2385 57.8719C47.0942 57.4935 47.0852 57.0767 47.2132 56.6924L47.2165 56.6824L47.22 56.6725L50.1313 48.5056H48.4929H48.483L48.483 48.5055C48.0739 48.5015 47.6721 48.3973 47.3126 48.2021C46.9531 48.007 46.6468 47.7269 46.4204 47.3864C46.1939 47.0458 46.054 46.6551 46.0128 46.2483C45.9716 45.8415 46.0302 45.4307 46.1837 45.0517L46.1872 45.043L46.1872 45.043L49.3072 37.5403C49.3073 37.5401 49.3074 37.5398 49.3076 37.5395C49.4966 37.0835 49.8166 36.6936 50.2274 36.4194C50.6381 36.1453 51.1209 35.9992 51.6147 36M60.4224 46.1038L51.6138 37M60.4224 46.1038C60.7265 45.7379 60.919 45.2937 60.9795 44.8236L59.9877 44.6959M60.4224 46.1038L59.6534 45.4645C59.8356 45.2454 59.9513 44.9788 59.9877 44.6959M51.6147 36C51.6151 36 51.6155 36 51.6159 36L51.6138 37M51.6147 36H51.6138V37M51.6147 36H55.7547H55.7668L55.7668 36.0001C56.2097 36.0055 56.6432 36.1282 57.0232 36.3556C57.4032 36.583 57.7162 36.907 57.9305 37.2945C58.1448 37.6819 58.2529 38.1191 58.2439 38.5617C58.235 39.0043 58.1093 39.4368 57.8795 39.8152L57.8733 39.8255L57.8732 39.8254L56.515 42.0032M51.6138 37H55.7547C56.0207 37.0032 56.2812 37.077 56.5097 37.2137C56.7381 37.3504 56.9264 37.5453 57.0554 37.7785C57.1844 38.0117 57.2495 38.2749 57.2441 38.5415C57.2387 38.8081 57.163 39.0684 57.0247 39.2962L55.3365 42.0032H56.515M56.515 42.0032L55.8913 43.0032H58.5025C58.7871 43.0033 59.0659 43.0846 59.306 43.2377M56.515 42.0032H58.5025H58.5028C58.9778 42.0033 59.4429 42.1391 59.8435 42.3944L59.306 43.2377M59.306 43.2377L59.8435 42.3944C60.244 42.6496 60.5634 43.0138 60.7645 43.444C60.9656 43.8741 61.0401 44.3527 60.9795 44.8236L59.9877 44.6959M59.306 43.2377C59.5462 43.3907 59.7379 43.6092 59.8586 43.8674C59.9793 44.1257 60.0241 44.4131 59.9877 44.6959" fill="#CACACA" stroke="#FBFBFB" stroke-width="2"/>
<defs>
<clipPath id="clip0_2818_73690">
<rect width="44" height="44" fill="white" transform="translate(10 10)"/>
</clipPath>
</defs>
</svg>
