<svg width="40" height="18" viewBox="0 0 40 18" fill="none" xmlns="http://www.w3.org/2000/svg">
<rect width="40" height="18" fill="#00AAD2"/>
<path d="M4.572 8.452L3.996 7.216C6.252 6.94 7.428 5.86 7.584 4.804H4.404V3.544H12.6V4.804H9.468C9.624 5.86 10.788 6.94 13.032 7.216L12.468 8.452C10.536 8.188 9.18 7.36 8.52 6.232C7.86 7.36 6.504 8.188 4.572 8.452ZM13.512 9.088V10.348H9.276V14.056H7.692V10.348H3.528V9.088H13.512ZM21.6591 6.988V9.544H20.1831V3.184H21.6591V5.704H22.4751V2.98H23.9751V9.892H22.4751V6.988H21.6591ZM19.8711 4.108V5.332H14.4951V4.108H16.4031V3.1H17.9631V4.108H19.8711ZM16.2231 7.612C16.2231 8.128 16.6191 8.416 17.2071 8.416C17.7951 8.416 18.1791 8.128 18.1791 7.612C18.1791 7.096 17.7951 6.82 17.2071 6.82C16.6191 6.82 16.2231 7.096 16.2231 7.612ZM19.5831 7.612C19.5831 8.752 18.5991 9.544 17.2071 9.544C15.8031 9.544 14.8191 8.752 14.8191 7.612C14.8191 6.472 15.8031 5.692 17.2071 5.692C18.5991 5.692 19.5831 6.472 19.5831 7.612ZM20.2311 12.856C21.7071 12.856 22.4511 12.604 22.4511 12.028C22.4511 11.452 21.7071 11.2 20.2311 11.2C18.7551 11.2 18.0111 11.452 18.0111 12.028C18.0111 12.604 18.7551 12.856 20.2311 12.856ZM20.2311 10.012C22.6071 10.012 24.0351 10.744 24.0351 12.028C24.0351 13.312 22.6071 14.032 20.2311 14.032C17.8551 14.032 16.4271 13.312 16.4271 12.028C16.4271 10.744 17.8551 10.012 20.2311 10.012ZM26.5541 7.564L26.0261 6.34C28.0781 6.16 29.1581 5.44 29.4341 4.696H26.5061V3.436H34.6781V4.696H31.7381C32.0141 5.44 33.0941 6.16 35.1581 6.34L34.6061 7.564C32.5301 7.384 31.1741 6.604 30.5861 5.56C29.9981 6.604 28.6421 7.384 26.5541 7.564ZM32.7941 12.04C32.7941 11.476 32.0381 11.236 30.5621 11.236C29.0861 11.236 28.3301 11.476 28.3301 12.04C28.3301 12.592 29.0861 12.832 30.5621 12.832C32.0381 12.832 32.7941 12.592 32.7941 12.04ZM35.5781 9.256H31.3781V10.072C33.2741 10.228 34.4021 10.912 34.4021 12.04C34.4021 13.312 32.9501 14.032 30.5621 14.032C28.1741 14.032 26.7341 13.312 26.7341 12.04C26.7341 10.9 27.8741 10.216 29.7941 10.06V9.256H25.5941V7.996H35.5781V9.256Z" fill="white"/>
</svg>
