<svg width="36" height="36" viewBox="0 0 36 36" fill="none" xmlns="http://www.w3.org/2000/svg">
<path d="M32.2939 1.05884H3.70565C2.24373 1.05884 1.05859 2.24397 1.05859 3.7059V32.2941C1.05859 33.7561 2.24373 34.9412 3.70565 34.9412H32.2939C33.7558 34.9412 34.9409 33.7561 34.9409 32.2941V3.7059C34.9409 2.24397 33.7558 1.05884 32.2939 1.05884ZM30.9703 3.70603C31.7008 3.70603 32.2938 4.29896 32.2938 5.02956C32.2938 5.76015 31.7008 6.35308 30.9703 6.35308C30.2396 6.35308 29.6468 5.76015 29.6468 5.02956C29.6468 4.29896 30.2396 3.70603 30.9703 3.70603ZM5.02921 3.70603C5.7598 3.70603 6.35274 4.2989 6.35274 5.02956C6.35274 5.76008 5.7598 6.35308 5.02921 6.35308C4.29862 6.35308 3.70568 5.76008 3.70568 5.02956C3.70568 4.2989 4.29862 3.70603 5.02921 3.70603ZM5.02912 32.2943C4.29846 32.2943 3.70559 31.7013 3.70559 30.9707C3.70559 30.2401 4.29846 29.6472 5.02912 29.6472C5.75964 29.6472 6.35265 30.2401 6.35265 30.9707C6.35265 31.7013 5.75964 32.2943 5.02912 32.2943ZM17.9216 32.3721C9.99701 32.3721 3.54945 25.9248 3.54945 18.0001C3.54945 10.0753 9.99701 3.62796 17.9216 3.62796C25.8463 3.62796 32.2938 10.0753 32.2938 18.0001C32.2938 25.9248 25.8463 32.3721 17.9216 32.3721ZM30.9704 32.2943C30.2398 32.2943 29.6469 31.7013 29.6469 30.9707C29.6469 30.2401 30.2398 29.6472 30.9704 29.6472C31.701 29.6472 32.2939 30.2401 32.2939 30.9707C32.2939 31.7013 31.701 32.2943 30.9704 32.2943Z" fill="#002C5F"/>
<path d="M17.8438 20.6693C19.2326 20.6693 20.3585 19.5434 20.3585 18.1546C20.3585 16.7658 19.2326 15.6399 17.8438 15.6399C16.455 15.6399 15.3291 16.7658 15.3291 18.1546C15.3291 19.5434 16.455 20.6693 17.8438 20.6693Z" fill="#002C5F"/>
<path d="M11.2072 10.4378C12.885 11.9004 14.3747 13.363 15.4424 14.8526C14.3926 15.5973 13.7107 16.8266 13.7107 18.2175C13.7107 18.3969 13.7197 18.5764 13.7466 18.7469C12.5621 18.3431 9.76239 18.2892 6.96291 18.2264C6.61305 18.2175 6.29891 17.9752 6.21807 17.6342C5.59 14.709 8.94592 9.73794 11.2072 10.4378Z" fill="#002C5F"/>
<path d="M8.40266 22.1371C10.3122 20.9934 12.1635 20.0286 13.9102 19.4734C14.294 20.7019 15.2524 21.7304 16.5752 22.1602C16.7459 22.2156 16.9193 22.2625 17.0898 22.2896C16.3397 23.2914 15.4234 25.9374 14.4985 28.5805C14.3819 28.9104 14.0544 29.1343 13.7052 29.1058C10.729 28.7992 7.03829 24.0714 8.40266 22.1371Z" fill="#002C5F"/>
<path d="M18.6628 28.4197C18.1651 26.2502 17.8196 24.1913 17.8313 22.3586C19.1184 22.3731 20.3927 21.7795 21.2102 20.6542C21.3157 20.5091 21.4139 20.3586 21.4923 20.2048C22.2132 21.2278 24.4466 22.9169 26.6745 24.6132C26.9523 24.8261 27.064 25.2068 26.929 25.5301C25.7177 28.2659 20.0808 30.315 18.6628 28.4197Z" fill="#002C5F"/>
<path d="M27.808 20.6031C25.5909 20.406 23.5261 20.0983 21.7867 19.5208C22.1982 18.3013 22.0274 16.9059 21.2099 15.7807C21.1044 15.6355 20.9916 15.4956 20.8696 15.3735C22.0653 15.004 24.3619 13.4019 26.6637 11.8072C26.952 11.6088 27.3485 11.6202 27.6143 11.8485C29.8419 13.8459 30.0488 19.8402 27.808 20.6031Z" fill="#002C5F"/>
<path d="M23.2003 9.48982C22.3278 11.5375 21.3971 13.4063 20.3104 14.882C19.2777 14.1138 17.8978 13.8451 16.575 14.2749C16.4044 14.3303 16.2365 14.3943 16.0827 14.4726C16.1007 13.2213 15.2867 10.542 14.4814 7.86012C14.3817 7.52463 14.5151 7.15099 14.8144 6.96874C17.4024 5.46746 23.1672 7.12299 23.2003 9.48982Z" fill="#002C5F"/>
</svg>
