<svg width="52" height="52" viewBox="0 0 52 52" fill="none" xmlns="http://www.w3.org/2000/svg">
<path d="M45.4152 17.0625H44.9583V16.5885C44.9583 13.7126 42.6189 11.375 39.7448 11.375H8.46354C5.58946 11.375 3.25 13.7126 3.25 16.5885V34.599C3.25 37.4749 5.58946 39.8125 8.46354 39.8125H39.7448C42.6189 39.8125 44.9583 37.4749 44.9583 34.599V34.125H45.4152C47.2447 34.125 48.7329 32.6368 48.7329 30.8073V20.3802C48.7329 18.5507 47.2447 17.0625 45.4152 17.0625ZM29.6343 24.2098L23.0065 34.635C22.8302 34.9137 22.5249 35.0729 22.2083 35.0729C22.1003 35.0729 21.9922 35.054 21.8879 35.0179C21.4709 34.8663 21.213 34.4473 21.268 34.0075L22.0832 27.4896L19.357 27.4858C19.0006 27.4858 18.6764 27.2867 18.5153 26.972C18.3541 26.6554 18.3806 26.2762 18.5873 25.9862L25.3668 16.5089C25.6227 16.1525 26.0948 16.0198 26.5005 16.1847C26.9081 16.3535 27.1451 16.78 27.0749 17.2142L26.1668 22.75L28.8362 22.7538C29.1831 22.7538 29.4997 22.9434 29.6665 23.2467C29.8315 23.5481 29.8201 23.9178 29.6343 24.2098Z" fill="#002C5F"/>
</svg>
