<svg width="52" height="52" viewBox="0 0 52 52" fill="none" xmlns="http://www.w3.org/2000/svg">
<path d="M18 42.5C18 44.9844 15.9858 47 13.5 47C11.0142 47 9 44.9844 9 42.5C9 40.0156 11.0142 38 13.5 38C15.9858 38 18 40.0156 18 42.5ZM39 38C36.5142 38 34.5 40.0156 34.5 42.5C34.5 44.9844 36.5142 47 39 47C41.4858 47 43.5 44.9844 43.5 42.5C43.5 40.0156 41.4858 38 39 38ZM48 33.5V42.5H46.5C46.5 38.3604 43.1397 35 39 35C34.8604 35 31.5 38.3604 31.5 42.5H21C21 38.3604 17.6396 35 13.5 35C9.36035 35 6 38.3604 6 42.5H3V33.5C3 31.6997 3.38965 28.9399 3.88477 27.1997L5.23535 22.4756C5.86523 20.2402 8.18994 18.5 10.5 18.5H25.5C27.4805 18.5 30.2402 19.4902 31.7695 20.7646L38.25 26.1655L44.1299 28.1299C46.3052 28.8506 48 31.2046 48 33.5ZM30.5522 29H26.0522V23.9199L20.4478 32H24.9478V37.0801L30.5522 29ZM39 9.5V6.5H36V5H31.5C28.7124 5 26.3833 6.91895 25.7124 9.5H16.5C14.0186 9.5 12 11.5186 12 14V15.5H15V14C15 13.1724 15.6724 12.5 16.5 12.5H25.7124C26.3833 15.0811 28.7124 17 31.5 17H36V15.5H39V12.5H36V9.5H39Z" fill="#002C5F"/>
</svg>
