<svg width="52" height="52" viewBox="0 0 52 52" fill="none" xmlns="http://www.w3.org/2000/svg">
<path d="M43.1412 14.944L36.024 7.36762C35.3568 6.65733 34.2447 6.65733 33.5775 7.36762C32.9102 8.07791 32.9102 9.26172 33.5775 9.972L37.1361 13.7602C34.912 14.7072 33.1327 17.3116 33.5775 20.1528C34.0223 22.7572 36.024 24.888 38.4706 25.1248C39.5826 25.3615 40.4723 25.1248 41.3619 24.6513V41.6981C41.3619 42.8819 40.2499 44.0658 39.1378 44.0658C38.0257 44.0658 36.9137 42.8819 36.9137 41.6981V31.0438C36.9137 28.4394 34.912 26.3086 32.4654 26.3086H30.2413V9.73524C30.2413 7.13086 28.2396 5 25.793 5H12.4483C10.0017 5 8 7.13086 8 9.73524V45.2496C8 46.4334 8.88965 47.6172 10.2241 47.6172H28.0172C29.3516 47.6172 30.2413 46.4334 30.2413 45.2496V29.86H33.5775V41.4614C33.5775 44.5393 35.5792 47.3804 38.4706 47.6172C41.8068 47.8539 44.6981 45.2496 44.6981 41.6981V19.2057C44.9205 17.5484 44.2533 16.1278 43.1412 14.944ZM39.3602 21.5733C38.2481 21.5733 37.1361 20.6263 37.1361 19.2057C37.1361 17.7852 38.2481 16.8381 39.3602 16.8381C40.4723 16.8381 41.5843 17.7852 41.5843 19.2057C41.5843 20.6263 40.4723 21.5733 39.3602 21.5733ZM17.1189 36.0158V29.86H14.45C13.5603 29.86 13.1155 28.913 13.5603 28.2027L19.5655 16.3646C19.7879 15.1808 21.3448 15.6543 21.3448 16.8381V23.941H23.7913C24.681 23.941 25.1258 24.888 24.681 25.8351L18.8982 36.7261C18.4534 37.6732 16.8965 37.1996 17.1189 36.0158Z" fill="#002C5F"/>
</svg>
