<svg width="64" height="64" viewBox="0 0 64 64" fill="none" xmlns="http://www.w3.org/2000/svg">
<path d="M24.5503 30.0996C23.3963 30.0996 22.4575 31.0384 22.4575 32.1924C22.4575 33.3464 23.3963 34.2852 24.5503 34.2852C24.5595 34.2852 24.5685 34.2846 24.5777 34.2845L25.2678 34.1585C26.0694 33.8651 26.6431 33.0945 26.6431 32.1925C26.6431 31.0384 25.7043 30.0996 24.5503 30.0996Z" fill="#D2D2D2"/>
<path d="M30.5439 40.6207C27.8948 40.6207 25.5281 39.2273 24.2081 37.0811C22.7648 36.9812 21.4917 36.2548 20.6594 35.1719C19.7915 36.0004 19.2778 37.1603 19.2778 38.3828C19.2778 40.1918 20.3676 41.7996 21.9246 42.5137C22.7647 42.7275 23.6441 42.8414 24.5498 42.8414C27.0085 42.8414 29.275 42.0036 31.0797 40.5992C30.9026 40.6119 30.7244 40.6207 30.5439 40.6207Z" fill="#D2D2D2"/>
<path d="M32.6172 26.184C32.6172 28.6332 31.4253 30.8885 29.4537 32.2706C29.4249 33.9816 28.5161 35.4814 27.1609 36.337C28.0113 37.2477 29.2214 37.806 30.5446 37.806C32.5315 37.806 34.2295 36.5461 34.8822 34.7834C35.0913 33.952 35.2029 33.0823 35.2029 32.187C35.2029 29.4941 34.198 27.0318 32.5441 25.1543C32.5911 25.4907 32.6172 25.834 32.6172 26.184Z" fill="#D2D2D2"/>
<path d="M8 49.3866H56V15H8V49.3866ZM41.6244 18.754H52.1741V21.5665H41.6244V18.754ZM41.6244 24.7705H52.1741V27.583H41.6244V24.7705ZM41.6244 30.787H52.1741V33.5995H41.6244V30.787ZM41.6244 36.8035H52.1741V39.616H41.6244V36.8035ZM41.6244 42.82H52.1741V45.6325H41.6244V42.82ZM24.5559 18.7284C31.9804 18.7284 38.0207 24.7687 38.0207 32.1933C38.0207 39.6178 31.9804 45.6581 24.5559 45.6581C17.1313 45.6581 11.091 39.6178 11.091 32.1933C11.091 24.7687 17.1313 18.7284 24.5559 18.7284Z" fill="#D2D2D2"/>
<path d="M16.456 38.386C16.456 35.9837 17.665 33.7262 19.64 32.3854C19.6375 32.3212 19.6352 32.257 19.6352 32.1922C19.6352 30.7051 20.3012 29.3714 21.3498 28.471C20.5395 27.7224 19.4653 27.2852 18.3378 27.2852C16.3776 27.2852 14.6564 28.5646 14.051 30.3318C13.9442 30.9361 13.8882 31.5577 13.8882 32.1922C13.8882 34.8594 14.8737 37.3007 16.4995 39.1714C16.4714 38.9136 16.456 38.6518 16.456 38.386Z" fill="#D2D2D2"/>
<path d="M18.3666 24.4778C20.6241 24.4778 22.7537 25.5459 24.1147 27.3138C24.2645 27.3 24.4159 27.292 24.5692 27.292C26.2185 27.292 27.679 28.111 28.5688 29.3626C29.3633 28.5187 29.8234 27.3939 29.8234 26.1944C29.8234 24.1878 28.5383 22.4282 26.7482 21.7694C26.0447 21.6225 25.3158 21.5449 24.5693 21.5449C21.6742 21.5449 19.0457 22.7064 17.1238 24.5872C17.5269 24.5166 17.9417 24.4778 18.3666 24.4778Z" fill="#D2D2D2"/>
</svg>
