<svg width="64" height="64" viewBox="0 0 64 64" fill="none" xmlns="http://www.w3.org/2000/svg">
<path d="M22.1548 14.5486C22.3448 14.1053 22.227 13.5908 21.8648 13.2742C21.5004 12.9564 20.9759 12.9108 20.5626 13.1586C14.4005 16.8552 12.1261 26.3584 15.696 33.4961C19.0171 40.1371 21.0215 44.1448 17.8915 51.4503C17.7015 51.8936 17.8193 52.4081 18.1815 52.7247C18.546 53.0425 19.0704 53.0881 19.4837 52.8403C25.6437 49.1437 27.9181 39.6405 24.3492 32.4994C21.0293 25.8595 19.0249 21.8518 22.1548 14.5486ZM34.3769 14.5486C34.5669 14.1053 34.4491 13.5908 34.0869 13.2742C33.7224 12.9564 33.198 12.9108 32.7847 13.1586C26.6236 16.8552 24.3492 26.3595 27.9181 33.4972C31.2391 40.1382 33.2436 44.146 30.1136 51.4514C29.9236 51.8947 30.0414 52.4092 30.4036 52.7258C30.768 53.0436 31.2925 53.0892 31.7058 52.8414C37.8657 49.1448 40.1401 39.6416 36.5713 32.5006C33.2513 25.8595 31.2469 21.8518 34.3769 14.5486ZM48.7933 32.5006C45.4734 25.8595 43.469 21.8518 46.5989 14.5486C46.7889 14.1053 46.6712 13.5908 46.3089 13.2742C45.9445 12.9564 45.4201 12.9108 45.0067 13.1586C38.8457 16.8552 36.5713 26.3595 40.1401 33.4972C43.4612 40.1382 45.4656 44.146 42.3357 51.4514C42.1457 51.8947 42.2634 52.4092 42.6256 52.7258C42.9901 53.0436 43.5145 53.0892 43.9279 52.8414C50.0878 49.1448 52.3622 39.6405 48.7933 32.5006Z" fill="#D2D2D2"/>
</svg>
