<svg width="70" height="70" viewBox="0 0 70 70" fill="none" xmlns="http://www.w3.org/2000/svg">
<rect width="70" height="70" rx="14" fill="#FFEADB"/>
<g clip-path="url(#clip0_1385_48219)">
<path d="M47.75 25.2632V23.6666C47.75 22.9151 47.4515 22.1945 46.9201 21.6631C46.3888 21.1318 45.6681 20.8333 44.9167 20.8333H39.25C38.4986 20.8333 37.7779 21.1318 37.2465 21.6631C36.7152 22.1945 36.4167 22.9151 36.4167 23.6666V25.0833H33.5833V23.6666C33.5833 22.9151 33.2848 22.1945 32.7535 21.6631C32.2221 21.1318 31.5014 20.8333 30.75 20.8333H25.0833C24.3319 20.8333 23.6112 21.1318 23.0799 21.6631C22.5485 22.1945 22.25 22.9151 22.25 23.6666V25.2632C21.0343 25.5786 19.9576 26.2883 19.1885 27.2812C18.4195 28.2741 18.0015 29.494 18 30.7499V42.0833C18.0022 43.9612 18.7492 45.7615 20.0771 47.0894C21.405 48.4173 23.2054 49.1643 25.0833 49.1666H44.9167C46.7946 49.1643 48.595 48.4173 49.9229 47.0894C51.2508 45.7615 51.9977 43.9612 52 42.0833V30.7499C51.9985 29.494 51.5805 28.2741 50.8115 27.2812C50.0424 26.2883 48.9657 25.5786 47.75 25.2632ZM30.75 36.4166H25.0833C24.7076 36.4166 24.3473 36.2673 24.0816 36.0017C23.8159 35.736 23.6667 35.3756 23.6667 34.9999C23.6667 34.6242 23.8159 34.2639 24.0816 33.9982C24.3473 33.7325 24.7076 33.5833 25.0833 33.5833H30.75C31.1257 33.5833 31.4861 33.7325 31.7517 33.9982C32.0174 34.2639 32.1667 34.6242 32.1667 34.9999C32.1667 35.3756 32.0174 35.736 31.7517 36.0017C31.4861 36.2673 31.1257 36.4166 30.75 36.4166ZM44.9167 36.4166H43.5V37.8333C43.5 38.209 43.3507 38.5693 43.0851 38.835C42.8194 39.1007 42.4591 39.2499 42.0833 39.2499C41.7076 39.2499 41.3473 39.1007 41.0816 38.835C40.8159 38.5693 40.6667 38.209 40.6667 37.8333V36.4166H39.25C38.8743 36.4166 38.5139 36.2673 38.2483 36.0017C37.9826 35.736 37.8333 35.3756 37.8333 34.9999C37.8333 34.6242 37.9826 34.2639 38.2483 33.9982C38.5139 33.7325 38.8743 33.5833 39.25 33.5833H40.6667V32.1666C40.6667 31.7909 40.8159 31.4305 41.0816 31.1649C41.3473 30.8992 41.7076 30.7499 42.0833 30.7499C42.4591 30.7499 42.8194 30.8992 43.0851 31.1649C43.3507 31.4305 43.5 31.7909 43.5 32.1666V33.5833H44.9167C45.2924 33.5833 45.6527 33.7325 45.9184 33.9982C46.1841 34.2639 46.3333 34.6242 46.3333 34.9999C46.3333 35.3756 46.1841 35.736 45.9184 36.0017C45.6527 36.2673 45.2924 36.4166 44.9167 36.4166Z" fill="#FFA959"/>
</g>
<defs>
<clipPath id="clip0_1385_48219">
<rect width="34" height="34" fill="white" transform="translate(18 18)"/>
</clipPath>
</defs>
</svg>
