<svg width="70" height="70" viewBox="0 0 70 70" fill="none" xmlns="http://www.w3.org/2000/svg">
<rect width="70" height="70" rx="14" fill="#FFEEEE"/>
<path d="M33.8014 52H28.3515L31.1848 40.6667H25.3297C24.7639 40.6664 24.2059 40.5338 23.7004 40.2795C23.195 40.0252 22.756 39.6561 22.4186 39.2019C22.0812 38.7476 21.8548 38.2207 21.7573 37.6633C21.6599 37.1059 21.6942 36.5334 21.8575 35.9917L27.2989 18H40.7105L36.4605 29.3333H42.1597C42.8081 29.3337 43.4443 29.5099 44.0007 29.8429C44.557 30.176 45.0127 30.6536 45.3193 31.225C45.6259 31.7964 45.772 32.4401 45.742 33.0879C45.712 33.7356 45.507 34.3631 45.1489 34.9037L33.8014 52Z" fill="#EF6161"/>
<path d="M40.078 46.4245H40.2257V50.2067C40.2257 51.7513 41.4744 53 43.019 53H43.0249H45.416C46.9606 53 48.2093 51.7513 48.2093 50.2067V46.4245H48.4407V46.4246L48.4489 46.4245C49.5818 46.4152 50.568 45.7459 51.0019 44.7027C51.434 43.6638 51.2101 42.4897 50.4192 41.6968L46.6225 37.6617L46.6121 37.6506L46.6013 37.6399C45.281 36.3195 43.1415 36.3261 41.8157 37.6518L41.8049 37.6627L41.7944 37.6738L38.0242 41.6826C37.1924 42.5316 36.9798 43.7766 37.5038 44.8612L37.5047 44.8632C37.9974 45.8775 39.045 46.4245 40.078 46.4245Z" fill="#EF6161" stroke="#FFEEEE" stroke-width="2"/>
</svg>
