<svg width="70" height="70" viewBox="0 0 70 70" fill="none" xmlns="http://www.w3.org/2000/svg">
<rect width="70" height="70" rx="14" fill="#FAEBE3"/>
<g clip-path="url(#clip0_1385_48215)">
<path d="M18.4632 35.0001C18.5043 34.8683 18.5228 34.7309 18.5695 34.6006L22.3917 24.079C22.8908 22.7138 23.7969 21.5346 24.9877 20.7008C26.1784 19.8671 27.5964 19.4189 29.05 19.4167H40.95C42.4038 19.4188 43.822 19.8671 45.0128 20.7012C46.2036 21.5352 47.1096 22.7148 47.6083 24.0804L51.4333 34.6006C51.4801 34.7309 51.4985 34.8683 51.5396 35.0001H18.4632ZM46.3333 37.8334V40.6667C46.3333 41.0425 46.1841 41.4028 45.9184 41.6685C45.6527 41.9342 45.2924 42.0834 44.9167 42.0834C44.5409 42.0834 44.1806 41.9342 43.9149 41.6685C43.6493 41.4028 43.5 41.0425 43.5 40.6667V37.8334H26.5V40.6667C26.5 41.0425 26.3507 41.4028 26.0851 41.6685C25.8194 41.9342 25.4591 42.0834 25.0833 42.0834C24.7076 42.0834 24.3473 41.9342 24.0816 41.6685C23.8159 41.4028 23.6667 41.0425 23.6667 40.6667V37.8334H18V40.6667C18.0018 42.0434 18.4047 43.3897 19.1595 44.541C19.9143 45.6923 20.9883 46.5987 22.25 47.1494V49.1667C22.25 49.9182 22.5485 50.6389 23.0799 51.1702C23.6112 51.7016 24.3319 52.0001 25.0833 52.0001C25.8348 52.0001 26.5554 51.7016 27.0868 51.1702C27.6182 50.6389 27.9167 49.9182 27.9167 49.1667V47.7501H42.0833V49.1667C42.0833 49.9182 42.3818 50.6389 42.9132 51.1702C43.4445 51.7016 44.1652 52.0001 44.9167 52.0001C45.6681 52.0001 46.3888 51.7016 46.9201 51.1702C47.4515 50.6389 47.75 49.9182 47.75 49.1667V47.1494C49.0117 46.5987 50.0857 45.6923 50.8405 44.541C51.5952 43.3897 51.9982 42.0434 52 40.6667V37.8334H46.3333Z" fill="#9A532C"/>
</g>
<defs>
<clipPath id="clip0_1385_48215">
<rect width="34" height="34" fill="white" transform="translate(18 18)"/>
</clipPath>
</defs>
</svg>
