<svg width="70" height="70" viewBox="0 0 70 70" fill="none" xmlns="http://www.w3.org/2000/svg">
<rect width="70" height="70" rx="14" fill="#E2FCF2"/>
<g clip-path="url(#clip0_1385_48222)">
<path d="M35 39.2393C32.6528 39.2393 30.75 41.1421 30.75 43.4893V51.9893H39.25V43.4893C39.25 41.1421 37.3472 39.2393 35 39.2393Z" fill="#4DD4A3"/>
<path d="M42.0834 43.4893V51.9893H47.75C50.0972 51.9893 52 50.0865 52 47.7393V34.8179C52.0003 34.082 51.7143 33.3747 51.2024 32.8459L39.1636 19.831C37.0394 17.5327 33.4543 17.3915 31.1559 19.5157C31.0468 19.6167 30.9416 19.7218 30.8407 19.831L18.8231 32.8417C18.2957 33.3727 17.9998 34.0908 18 34.8392V47.7393C18 50.0865 19.9028 51.9893 22.25 51.9893H27.9166V43.4893C27.9431 39.6263 31.062 36.4718 34.8277 36.3809C38.7194 36.287 42.0537 39.4953 42.0834 43.4893Z" fill="#4DD4A3"/>
<path d="M35 39.2393C32.6528 39.2393 30.75 41.1421 30.75 43.4893V51.9893H39.25V43.4893C39.25 41.1421 37.3472 39.2393 35 39.2393Z" fill="#4DD4A3"/>
</g>
<defs>
<clipPath id="clip0_1385_48222">
<rect width="34" height="34" fill="white" transform="translate(18 18)"/>
</clipPath>
</defs>
</svg>
