<svg width="70" height="70" viewBox="0 0 70 70" fill="none" xmlns="http://www.w3.org/2000/svg">
<rect width="70" height="70" rx="14" fill="#ECF0FF"/>
<rect width="34" height="34" transform="translate(18 18)" fill="#ECF0FF"/>
<path fill-rule="evenodd" clip-rule="evenodd" d="M29.4423 20.4251C29.7174 19.0165 30.9515 18 32.3867 18H37.6159C39.0511 18 40.2852 19.0165 40.5603 20.4251L41.0088 22.7222H43.9705C44.7529 22.7222 45.3872 23.3564 45.3872 24.1388C45.3872 24.9212 44.7529 25.5555 43.9705 25.5555H41.562L42.1151 28.3887H47.7487C48.5311 28.3887 49.1654 29.0229 49.1654 29.8053C49.1654 30.5877 48.5311 31.222 47.7487 31.222H42.6683L45.6367 46.4251C45.9984 48.2777 44.5798 50 42.6923 50H27.3104C25.4228 50 24.0042 48.2777 24.3659 46.4251L27.3343 31.222H22.2487C21.4663 31.222 20.832 30.5877 20.832 29.8053C20.832 29.0229 21.4663 28.3887 22.2487 28.3887H27.8875L28.4407 25.5555H26.026C25.2436 25.5555 24.6094 24.9212 24.6094 24.1388C24.6094 23.3564 25.2436 22.7222 26.026 22.7222H28.9939L29.4423 20.4251Z" fill="#4D6BD4"/>
<g clip-path="url(#clip0_1385_48220)">
<path d="M38.7395 36.4674C38.7174 36.4284 38.6854 36.396 38.6467 36.3735C38.6081 36.351 38.5641 36.3391 38.5194 36.3391H35.2054L35.761 32.094C35.7669 32.0372 35.7536 31.98 35.7231 31.9317C35.6927 31.8834 35.6468 31.8467 35.593 31.8276C35.5391 31.8085 35.4804 31.8081 35.4263 31.8264C35.3722 31.8448 35.3258 31.8808 35.2947 31.9287L31.2645 38.9893C31.241 39.0277 31.228 39.0716 31.2271 39.1166C31.2262 39.1616 31.2373 39.206 31.2592 39.2453C31.2812 39.2846 31.3132 39.3173 31.352 39.34C31.3908 39.3628 31.435 39.3748 31.48 39.3748H34.7445L34.3042 43.6263C34.2998 43.683 34.3146 43.7394 34.346 43.7867C34.3775 43.834 34.4238 43.8694 34.4777 43.8873C34.5316 43.9051 34.5899 43.9045 34.6434 43.8854C34.6969 43.8664 34.7425 43.8299 34.7729 43.782L38.7364 36.722C38.7594 36.6837 38.7718 36.6399 38.7723 36.5951C38.7729 36.5504 38.7615 36.5063 38.7395 36.4674Z" fill="white"/>
</g>
<defs>
<clipPath id="clip0_1385_48220">
<rect width="12.1429" height="12.1429" fill="white" transform="translate(28.9297 31.7856)"/>
</clipPath>
</defs>
</svg>
