<svg width="70" height="70" viewBox="0 0 70 70" fill="none" xmlns="http://www.w3.org/2000/svg">
<rect width="70" height="70" rx="14" fill="#DBF6FC"/>
<g clip-path="url(#clip0_1385_48226)">
<path d="M20.1263 36.4167C20.0937 36.4167 20.0597 36.4167 20.0257 36.4152C18.8527 36.36 17.9475 35.3655 18.0027 34.1925C18.4277 25.1131 25.895 18 34.9999 18C38.5146 18 41.8679 19.0781 44.697 21.0529L46.7483 19.0016C47.6408 18.1091 49.1665 18.7409 49.1665 20.0032V26.5C49.1665 27.282 48.5319 27.9167 47.7499 27.9167H41.253C39.9908 27.9167 39.359 26.3909 40.2515 25.4984L41.6299 24.12C39.6494 22.9088 37.3742 22.25 34.9999 22.25C28.1687 22.25 22.5672 27.5837 22.2485 34.3908C22.1946 35.5298 21.2554 36.4167 20.1263 36.4167ZM49.974 33.5848C48.7996 33.555 47.8065 34.4376 47.7513 35.6077C47.4325 42.4163 41.831 47.7486 34.9999 47.7486C32.6355 47.7486 30.349 47.0955 28.3642 45.8843L29.7483 44.5002C30.6408 43.6077 30.009 42.0819 28.7467 42.0819H22.2499C21.4679 42.0819 20.8332 42.7166 20.8332 43.4986V49.9954C20.8332 51.2577 22.359 51.8895 23.2515 50.997L25.3056 48.9428C28.139 50.9162 31.5035 51.9972 34.9999 51.9972C44.1062 51.9972 51.572 44.8841 51.9985 35.8047C52.0537 34.6317 51.147 33.6372 49.9755 33.5819L49.974 33.5848ZM42.1937 33.2858L41.5888 33.6357C41.6795 34.0763 41.729 34.5325 41.729 35C41.729 35.4675 41.6809 35.9223 41.5888 36.3643L42.1937 36.7142C43.2095 37.3035 43.5551 38.6026 42.9658 39.6183C42.572 40.2983 41.858 40.678 41.1255 40.678C40.7643 40.678 40.3974 40.5859 40.0616 40.3904L39.4298 40.0235C38.764 40.6114 37.9848 41.0619 37.1249 41.3509V42.0819C37.1249 43.2563 36.1743 44.2069 34.9999 44.2069C33.8255 44.2069 32.8749 43.2563 32.8749 42.0819V41.3509C32.015 41.0619 31.2358 40.6114 30.57 40.0235L29.9395 40.389C29.6038 40.5845 29.2369 40.6766 28.8756 40.6766C28.1418 40.6766 27.4292 40.2969 27.0354 39.6169C26.446 38.6026 26.7917 37.3021 27.8075 36.7127L28.4124 36.3628C28.3217 35.9222 28.2721 35.4661 28.2721 34.9986C28.2721 34.5311 28.3217 34.0749 28.4124 33.6343L27.8075 33.2844C26.7917 32.6951 26.446 31.396 27.0354 30.3802C27.6233 29.3645 28.9224 29.0174 29.9395 29.6082L30.57 29.9737C31.2358 29.3857 32.015 28.9352 32.8749 28.6462V27.9152C32.8749 26.7408 33.8255 25.7902 34.9999 25.7902C36.1743 25.7902 37.1249 26.7408 37.1249 27.9152V28.6462C37.9848 28.9352 38.764 29.3857 39.4298 29.9737L40.0616 29.6067C41.0774 29.016 42.3765 29.3631 42.9658 30.3788C43.5551 31.3946 43.208 32.6951 42.1937 33.283V33.2858ZM37.479 35C37.479 33.6329 36.367 32.5208 34.9999 32.5208C33.6328 32.5208 32.5207 33.6329 32.5207 35C32.5207 36.3671 33.6328 37.4792 34.9999 37.4792C36.367 37.4792 37.479 36.3671 37.479 35Z" fill="#00AAD2"/>
</g>
<defs>
<clipPath id="clip0_1385_48226">
<rect width="34" height="34" fill="white" transform="translate(18 18)"/>
</clipPath>
</defs>
</svg>
