<svg width="70" height="70" viewBox="0 0 70 70" fill="none" xmlns="http://www.w3.org/2000/svg">
<rect width="70" height="70" rx="14" fill="#F9E7FF"/>
<g clip-path="url(#clip0_1385_48218)">
<path d="M50.5833 20.8333C50.2076 20.8333 49.8473 20.9826 49.5816 21.2483C49.3159 21.5139 49.1667 21.8743 49.1667 22.25V23.6667H46.3333V22.25C46.3333 21.8743 46.1841 21.5139 45.9184 21.2483C45.6527 20.9826 45.2924 20.8333 44.9167 20.8333C44.5409 20.8333 44.1806 20.9826 43.9149 21.2483C43.6493 21.5139 43.5 21.8743 43.5 22.25V25.7917C43.4998 26.6081 43.7818 27.3996 44.2981 28.0321C44.8144 28.6645 45.5334 29.0992 46.3333 29.2625V42.0833C46.3333 42.8348 46.0348 43.5554 45.5035 44.0868C44.9721 44.6182 44.2514 44.9167 43.5 44.9167H40.6667V33.5833H37.8333C37.4576 33.5833 37.0973 33.4341 36.8316 33.1684C36.5659 32.9027 36.4167 32.5424 36.4167 32.1667C36.4167 31.7909 36.5659 31.4306 36.8316 31.1649C37.0973 30.8993 37.4576 30.75 37.8333 30.75H40.6667V25.0833C40.6644 23.2054 39.9174 21.405 38.5895 20.0771C37.2616 18.7492 35.4613 18.0022 33.5833 18H25.0833C23.2054 18.0022 21.405 18.7492 20.0771 20.0771C18.7492 21.405 18.0022 23.2054 18 25.0833L18 30.75H20.8333C21.2091 30.75 21.5694 30.8993 21.8351 31.1649C22.1007 31.4306 22.25 31.7909 22.25 32.1667C22.25 32.5424 22.1007 32.9027 21.8351 33.1684C21.5694 33.4341 21.2091 33.5833 20.8333 33.5833H18V44.9167C18.0022 46.7946 18.7492 48.595 20.0771 49.9229C21.405 51.2508 23.2054 51.9977 25.0833 52H33.5833C34.9611 51.9984 36.3086 51.5957 37.4614 50.8409C38.6141 50.0862 39.5221 49.0122 40.0745 47.75H43.5C45.0029 47.75 46.4442 47.153 47.5069 46.0903C48.5696 45.0276 49.1667 43.5862 49.1667 42.0833V29.2625C49.9666 29.0992 50.6856 28.6645 51.2019 28.0321C51.7182 27.3996 52.0002 26.6081 52 25.7917V22.25C52 21.8743 51.8507 21.5139 51.5851 21.2483C51.3194 20.9826 50.9591 20.8333 50.5833 20.8333ZM33.2037 34.2775L30.5375 38.5799C30.3395 38.8993 30.0227 39.1269 29.6569 39.2127C29.2911 39.2985 28.9061 39.2355 28.5868 39.0375C28.2674 38.8395 28.0398 38.5227 27.9539 38.1569C27.8681 37.7911 27.9312 37.4061 28.1292 37.0867L30.3009 33.5833H27.3712C27.0141 33.5835 26.6618 33.4999 26.3428 33.3394C26.0237 33.1789 25.7466 32.9459 25.5339 32.659C25.3211 32.3721 25.1785 32.0394 25.1174 31.6874C25.0564 31.3355 25.0787 30.9742 25.1825 30.6324C25.2154 30.5163 25.263 30.4049 25.3242 30.3009L28.1263 25.7577C28.2183 25.5886 28.3438 25.44 28.4952 25.3211C28.6465 25.2021 28.8205 25.1152 29.0065 25.0657C29.1925 25.0163 29.3867 25.0052 29.5771 25.0332C29.7675 25.0613 29.9503 25.1278 30.1141 25.2289C30.278 25.3299 30.4195 25.4632 30.5301 25.6208C30.6407 25.7783 30.7181 25.9567 30.7574 26.1451C30.7968 26.3336 30.7973 26.528 30.759 26.7167C30.7207 26.9053 30.6444 27.0842 30.5347 27.2423L28.3813 30.75H31.3167C31.7281 30.7484 32.1321 30.8587 32.4856 31.0692C32.839 31.2797 33.1285 31.5825 33.323 31.945C33.5175 32.3075 33.6097 32.7161 33.5897 33.127C33.5697 33.5379 33.4382 33.9356 33.2093 34.2775H33.2037Z" fill="#B062CC"/>
</g>
<defs>
<clipPath id="clip0_1385_48218">
<rect width="34" height="34" fill="white" transform="translate(18 18)"/>
</clipPath>
</defs>
</svg>
