<svg width="70" height="70" viewBox="0 0 70 70" fill="none" xmlns="http://www.w3.org/2000/svg">
<rect width="70" height="70" rx="14" fill="#FFEADB"/>
<path d="M35.8014 52H30.3515L33.1848 40.6667H27.3297C26.7639 40.6664 26.2059 40.5338 25.7004 40.2795C25.195 40.0252 24.756 39.6561 24.4186 39.2019C24.0812 38.7476 23.8548 38.2207 23.7573 37.6633C23.6599 37.1059 23.6942 36.5334 23.8575 35.9917L29.2989 18H42.7105L38.4605 29.3333H44.1597C44.8081 29.3337 45.4443 29.5099 46.0007 29.8429C46.557 30.176 47.0127 30.6536 47.3193 31.225C47.6259 31.7964 47.772 32.4401 47.742 33.0879C47.712 33.7356 47.507 34.3631 47.1489 34.9037L35.8014 52Z" fill="#FFA53C"/>
<circle cx="46.7031" cy="45" r="9" fill="#FFA53C" stroke="#FFEADB" stroke-width="2"/>
<path d="M42.7031 45H50.7031" stroke="white" stroke-width="2"/>
</svg>
