<svg width="70" height="70" viewBox="0 0 70 70" fill="none" xmlns="http://www.w3.org/2000/svg">
<rect width="70" height="70" rx="14" fill="#DBF9E8"/>
<g clip-path="url(#clip0_1385_48225)">
<path d="M38.0897 18.2932C37.8854 18.2556 37.6754 18.2634 37.4745 18.316C37.2735 18.3686 37.0866 18.4647 36.927 18.5976C36.7674 18.7305 36.6389 18.8968 36.5507 19.0849C36.4625 19.2729 36.4167 19.4781 36.4166 19.6858V23.7644C34.7014 23.5368 32.9567 23.7073 31.318 24.2627C29.6792 24.818 28.1904 25.7433 26.9669 26.9668C25.7434 28.1904 24.8181 29.6792 24.2627 31.3179C23.7073 32.9567 23.5368 34.7013 23.7644 36.4166H19.6858C19.4781 36.4167 19.2729 36.4625 19.0849 36.5507C18.8969 36.6389 18.7305 36.7673 18.5976 36.927C18.4648 37.0866 18.3686 37.2735 18.316 37.4744C18.2634 37.6754 18.2556 37.8854 18.2932 38.0897C18.8542 41.1377 20.2378 43.9743 22.2943 46.2928C24.3507 48.6114 27.0019 50.3237 29.9611 51.2446C32.9203 52.1654 36.075 52.2598 39.0839 51.5176C42.0929 50.7753 44.8417 49.2246 47.0332 47.0331C49.2246 44.8417 50.7753 42.0929 51.5176 39.0839C52.2598 36.0749 52.1654 32.9203 51.2446 29.9611C50.3237 27.0019 48.6114 24.3507 46.2929 22.2942C43.9743 20.2377 41.1377 18.8542 38.0897 18.2932ZM35 37.8333C34.5046 37.8319 34.0183 37.7003 33.5899 37.4516C33.1615 37.203 32.806 36.846 32.559 36.4166H29.3333C28.9576 36.4166 28.5972 36.2673 28.3316 36.0017C28.0659 35.736 27.9166 35.3757 27.9166 34.9999C27.9166 34.6242 28.0659 34.2639 28.3316 33.9982C28.5972 33.7325 28.9576 33.5833 29.3333 33.5833H32.559C32.8059 33.1589 33.1589 32.8059 33.5833 32.559V27.9166C33.5833 27.5409 33.7325 27.1805 33.9982 26.9149C34.2639 26.6492 34.6242 26.4999 35 26.4999C35.3757 26.4999 35.736 26.6492 36.0017 26.9149C36.2674 27.1805 36.4166 27.5409 36.4166 27.9166V32.559C36.957 32.8694 37.3795 33.3498 37.6185 33.9254C37.8574 34.501 37.8993 35.1394 37.7376 35.7412C37.576 36.3431 37.2199 36.8746 36.7247 37.253C36.2295 37.6314 35.6231 37.8354 35 37.8333ZM32.127 18.1416C32.4071 18.1416 32.681 18.2247 32.914 18.3804C33.147 18.536 33.3286 18.7573 33.4358 19.0161C33.543 19.275 33.5711 19.5598 33.5164 19.8346C33.4617 20.1095 33.3268 20.3619 33.1287 20.56C32.9306 20.7581 32.6781 20.8931 32.4033 20.9477C32.1285 21.0024 31.8437 20.9743 31.5848 20.8671C31.326 20.7599 31.1047 20.5783 30.949 20.3453C30.7934 20.1124 30.7103 19.8385 30.7103 19.5583C30.7103 19.1825 30.8595 18.8222 31.1252 18.5565C31.3909 18.2909 31.7512 18.1416 32.127 18.1416ZM26.3186 20.6293C26.5988 20.6293 26.8727 20.7124 27.1057 20.868C27.3387 21.0237 27.5202 21.2449 27.6275 21.5038C27.7347 21.7627 27.7627 22.0475 27.7081 22.3223C27.6534 22.5971 27.5185 22.8495 27.3204 23.0477C27.1222 23.2458 26.8698 23.3807 26.595 23.4354C26.3202 23.49 26.0354 23.462 25.7765 23.3548C25.5176 23.2475 25.2964 23.066 25.1407 22.833C24.985 22.6 24.902 22.3261 24.902 22.0459C24.9012 21.6705 25.0495 21.31 25.3144 21.0439C25.5792 20.7777 25.9389 20.6276 26.3144 20.6264L26.3186 20.6293ZM21.9369 24.858C22.2171 24.858 22.491 24.9411 22.7239 25.0968C22.9569 25.2524 23.1385 25.4737 23.2457 25.7326C23.3529 25.9914 23.381 26.2763 23.3263 26.5511C23.2717 26.8259 23.1367 27.0783 22.9386 27.2764C22.7405 27.4745 22.4881 27.6095 22.2133 27.6641C21.9384 27.7188 21.6536 27.6907 21.3947 27.5835C21.1359 27.4763 20.9146 27.2947 20.759 27.0617C20.6033 26.8288 20.5202 26.5549 20.5202 26.2747C20.5202 25.899 20.6695 25.5386 20.9351 25.2729C21.2008 25.0073 21.5612 24.858 21.9369 24.858ZM19.6702 30.7613C19.9504 30.7613 20.2243 30.8444 20.4573 31C20.6902 31.1557 20.8718 31.3769 20.979 31.6358C21.0863 31.8947 21.1143 32.1795 21.0597 32.4543C21.005 32.7291 20.8701 32.9815 20.6719 33.1797C20.4738 33.3778 20.2214 33.5127 19.9466 33.5674C19.6718 33.622 19.3869 33.594 19.1281 33.4868C18.8692 33.3795 18.648 33.198 18.4923 32.965C18.3366 32.732 18.2535 32.4581 18.2535 32.1779C18.2535 31.8027 18.4024 31.4428 18.6675 31.1772C18.9325 30.9116 19.2921 30.762 19.6674 30.7613H19.6702Z" fill="#3CCC7E"/>
</g>
<defs>
<clipPath id="clip0_1385_48225">
<rect width="34" height="34" fill="white" transform="translate(18 18)"/>
</clipPath>
</defs>
</svg>
