<svg width="70" height="70" viewBox="0 0 70 70" fill="none" xmlns="http://www.w3.org/2000/svg">
<rect width="70" height="70" rx="14" fill="#FFEFEF"/>
<g clip-path="url(#clip0_1385_48221)">
<path d="M36.4166 49.1666H43.5V51.9999H26.5V49.1666H33.5833V46.3333H30.349L30.7542 40.6666H39.2981L39.7033 46.3333H36.418V49.1666H36.4166ZM30.9568 37.8333H39.0955L38.6904 32.1666H31.3605L30.9568 37.8333ZM41.5308 32.1666L41.936 37.8333H49.9203L49.2573 35.3286C48.7629 33.4671 47.0742 32.1666 45.149 32.1666H41.5308ZM42.5423 46.3333H52.1685L50.6683 40.6666H42.1357L42.5423 46.3333ZM28.5201 32.1666H24.8524C22.9271 32.1666 21.237 33.4671 20.744 35.3286L20.081 37.8333H28.1164L28.5201 32.1666ZM27.9138 40.6666H19.3302L17.83 46.3333H27.5072L27.9138 40.6666ZM45.6264 26.4999H41.9416C41.6696 25.1683 41.0095 23.9854 40.1028 23.039L42.4573 19.6404L40.1269 18.0269L37.7738 21.424C36.9181 21.0571 35.9874 20.8347 35 20.8347C34.0125 20.8347 33.0818 21.0571 32.2261 21.424L29.8971 18.0609L27.5667 19.6744L29.8971 23.039C28.9905 23.9868 28.3303 25.1683 28.0583 26.4999H24.3735V29.3333H45.6235V26.4999H45.6264Z" fill="#EF726A"/>
</g>
<defs>
<clipPath id="clip0_1385_48221">
<rect width="34" height="34" fill="white" transform="translate(18 18)"/>
</clipPath>
</defs>
</svg>
