<svg width="70" height="70" viewBox="0 0 70 70" fill="none" xmlns="http://www.w3.org/2000/svg">
<rect width="70" height="70" rx="14" fill="#E2FCF2"/>
<path d="M33.8014 52H28.3515L31.1848 40.6667H25.3297C24.7639 40.6664 24.2059 40.5338 23.7004 40.2795C23.195 40.0252 22.756 39.6561 22.4186 39.2019C22.0812 38.7476 21.8548 38.2207 21.7573 37.6633C21.6599 37.1059 21.6942 36.5334 21.8575 35.9917L27.2989 18H40.7105L36.4605 29.3333H42.1597C42.8081 29.3337 43.4443 29.5099 44.0007 29.8429C44.557 30.176 45.0127 30.6536 45.3193 31.225C45.6259 31.7964 45.772 32.4401 45.742 33.0879C45.712 33.7356 45.507 34.3631 45.1489 34.9037L33.8014 52Z" fill="#4DD4A3"/>
<path d="M48.3595 43.229L48.2118 43.229L48.2118 39.4469C48.2118 37.9023 46.9631 36.6536 45.4185 36.6536L45.4126 36.6536L43.0215 36.6536C41.4769 36.6536 40.2282 37.9023 40.2282 39.4469L40.2282 43.229L39.9968 43.229L39.9968 43.229L39.9886 43.2291C38.8557 43.2383 37.8695 43.9076 37.4356 44.9509C37.0035 45.9898 37.2274 47.1639 38.0183 47.9568L41.815 51.9918L41.8254 52.0029L41.8362 52.0137C43.1565 53.334 45.296 53.3275 46.6218 52.0017L46.6326 51.9909L46.6431 51.9797L50.4133 47.971C51.2451 47.122 51.4577 45.877 50.9337 44.7923L50.9328 44.7904C50.4401 43.776 49.3925 43.229 48.3595 43.229Z" fill="#4DD4A3" stroke="#E2FCF2" stroke-width="2"/>
</svg>
