<svg width="46" height="46" viewBox="0 0 46 46" fill="none" xmlns="http://www.w3.org/2000/svg">
<path d="M16.1195 0H29.8802L38.3332 46H7.6665L16.1195 0Z" fill="#002C5F"/>
<rect x="8.94434" y="6.38892" width="28.1111" height="3.83333" fill="#002C5F"/>
<rect x="3.8335" y="14.0557" width="38.3333" height="3.83333" fill="#002C5F"/>
<g clip-path="url(#clip0_1078_29528)">
<path d="M28.0574 27.6914C28.0276 27.6387 27.9843 27.5949 27.932 27.5644C27.8796 27.5339 27.8202 27.5179 27.7596 27.5179H23.276L24.0277 21.7744C24.0358 21.6976 24.0177 21.6202 23.9765 21.5549C23.9353 21.4895 23.8732 21.4399 23.8004 21.4141C23.7275 21.3882 23.6481 21.3877 23.5749 21.4125C23.5017 21.4373 23.439 21.486 23.3968 21.5508L17.9443 31.1035C17.9124 31.1553 17.8949 31.2148 17.8936 31.2756C17.8924 31.3365 17.9074 31.3966 17.9371 31.4497C17.9668 31.5029 18.0101 31.5471 18.0626 31.5779C18.1151 31.6087 18.1749 31.625 18.2358 31.625H22.6524L22.0567 37.377C22.0508 37.4536 22.0708 37.53 22.1133 37.594C22.1559 37.6579 22.2186 37.7058 22.2915 37.73C22.3644 37.7543 22.4433 37.7534 22.5157 37.7276C22.588 37.7018 22.6497 37.6525 22.6908 37.5876L28.0533 28.0359C28.0844 27.984 28.1012 27.9248 28.1019 27.8642C28.1026 27.8037 28.0873 27.744 28.0574 27.6914Z" fill="white"/>
</g>
<defs>
<clipPath id="clip0_1078_29528">
<rect width="16.4286" height="16.4286" fill="white" transform="translate(14.7856 21.3572)"/>
</clipPath>
</defs>
</svg>
