<svg width="70" height="70" viewBox="0 0 70 70" fill="none" xmlns="http://www.w3.org/2000/svg">
<rect width="70" height="70" rx="14" fill="#FFEADB"/>
<g clip-path="url(#clip0_2111_10291)">
<path d="M36.4918 25.1952C37.8674 23.9075 39.8125 21.8519 40.5917 19.8913C40.9529 18.9832 40.2276 18 39.2501 18H30.7501C29.7726 18 29.0472 18.9818 29.4085 19.8913C30.1877 21.8519 32.1327 23.9075 33.5083 25.1952C25.8895 26.3272 19.4167 35.8755 19.4167 43.5C19.4167 48.1877 23.229 52 27.9167 52H42.0834C46.7712 52 50.5834 48.1877 50.5834 43.5C50.5834 35.8755 44.1107 26.3272 36.4918 25.1952Z" fill="#FFA826"/>
<path d="M27.7061 39.3299C27.7061 39.0966 27.7761 38.9052 27.9161 38.7559C28.0467 38.6066 28.2614 38.5319 28.5601 38.5319H29.2181L28.6441 34.9339C28.6254 34.8499 28.6161 34.7239 28.6161 34.5559C28.6161 34.1826 28.7187 33.8886 28.9241 33.6739C29.1387 33.4499 29.4327 33.3379 29.8061 33.3379C30.1141 33.3379 30.3707 33.4266 30.5761 33.6039C30.7814 33.7719 30.9074 34.0286 30.9541 34.3739L31.5141 38.5319H32.7741L33.5721 34.4019C33.6467 34.0192 33.8241 33.7486 34.1041 33.5899C34.3841 33.4219 34.6874 33.3379 35.0141 33.3379C35.3407 33.3379 35.6441 33.4219 35.9241 33.5899C36.2041 33.7486 36.3814 34.0192 36.4561 34.4019L37.2681 38.5319H38.5141L39.0741 34.3739C39.1207 34.0286 39.2467 33.7719 39.4521 33.6039C39.6574 33.4266 39.9141 33.3379 40.2221 33.3379C40.5954 33.3379 40.8847 33.4499 41.0901 33.6739C41.2954 33.8886 41.3981 34.1872 41.3981 34.5699C41.3981 34.6352 41.3887 34.7519 41.3701 34.9199L40.7961 38.5319H41.4541C41.7527 38.5319 41.9674 38.6066 42.0981 38.7559C42.2381 38.9052 42.3081 39.0966 42.3081 39.3299C42.3081 39.5632 42.2381 39.7639 42.0981 39.9319C41.9581 40.0906 41.7434 40.1699 41.4541 40.1699H40.5441L39.8441 44.6079C39.7787 45.0372 39.5827 45.3779 39.2561 45.6299C38.9387 45.8819 38.5981 46.0079 38.2341 46.0079C37.8514 46.0079 37.4967 45.9146 37.1701 45.7279C36.8527 45.5412 36.6567 45.2519 36.5821 44.8599L35.6721 40.1699H34.3561L33.4461 44.8599C33.3714 45.2519 33.1707 45.5412 32.8441 45.7279C32.5267 45.9146 32.1767 46.0079 31.7941 46.0079C31.4301 46.0079 31.0894 45.8819 30.7721 45.6299C30.4547 45.3779 30.2587 45.0372 30.1841 44.6079L29.4841 40.1699H28.5601C28.2707 40.1699 28.0561 40.0906 27.9161 39.9319C27.7761 39.7639 27.7061 39.5632 27.7061 39.3299ZM32.0181 42.3679L32.4521 40.1699H31.7241L32.0181 42.3679ZM35.3641 38.5319L35.0141 36.7399L34.6641 38.5319H35.3641ZM38.0101 42.3119L38.2901 40.1699H37.5901L38.0101 42.3119Z" fill="#FFF0DB"/>
</g>
<defs>
<clipPath id="clip0_2111_10291">
<rect width="34" height="34" fill="white" transform="translate(18 18)"/>
</clipPath>
</defs>
</svg>
