<svg width="28" height="28" viewBox="0 0 28 28" fill="none" xmlns="http://www.w3.org/2000/svg">
<path d="M14.4219 3C9.77803 3 6 6.77803 6 11.4219C6 12.9083 6.39273 14.3697 7.13571 15.6481C7.30891 15.9461 7.50253 16.2365 7.71127 16.5113L14.056 25H14.7878L21.1325 16.5114C21.3412 16.2365 21.5348 15.9461 21.708 15.6481C22.451 14.3697 22.8438 12.9083 22.8438 11.4219C22.8438 6.77803 19.0657 3 14.4219 3ZM14.4219 14.2148C12.8818 14.2148 11.6289 12.9619 11.6289 11.4219C11.6289 9.88183 12.8818 8.62891 14.4219 8.62891C15.9619 8.62891 17.2148 9.88183 17.2148 11.4219C17.2148 12.9619 15.9619 14.2148 14.4219 14.2148Z" fill="#999999"/>
</svg>
