<svg width="64" height="64" viewBox="0 0 64 64" fill="none" xmlns="http://www.w3.org/2000/svg">
<path d="M38.2966 33.2966L34.0928 37.5005L31.5005 34.9081L35.7043 30.7043C36.4211 29.9875 36.4211 28.8288 35.7043 28.112C34.9875 27.3951 33.8288 27.3951 33.112 28.112L28.9081 32.3158L25.4633 28.871C24.7465 28.1541 23.5878 28.1541 22.871 28.871C22.1541 29.5878 22.1541 30.7465 22.871 31.4633L23.5163 32.1086L21.4373 34.1895C18.1923 37.4326 17.8036 42.467 20.2676 46.141L15.5376 50.871C14.8208 51.5878 14.8208 52.7465 15.5376 53.4633C15.8951 53.8208 16.3645 54.0005 16.8338 54.0005C17.3031 54.0005 17.7725 53.8208 18.13 53.4633L22.86 48.7333C24.4458 49.7966 26.2846 50.3301 28.1235 50.3301C30.5453 50.3301 32.9671 49.408 34.8096 47.5636L36.8905 45.4846L37.5358 46.13C37.8933 46.4875 38.3626 46.6671 38.832 46.6671C39.3013 46.6671 39.7706 46.4875 40.1281 46.13C40.845 45.4131 40.845 44.2545 40.1281 43.5376L36.6833 40.0928L40.8871 35.889C41.604 35.1721 41.604 34.0135 40.8871 33.2966C40.1703 32.5798 39.0135 32.5798 38.2966 33.2966ZM58.4633 10.5376C57.7465 9.82079 56.5878 9.82079 55.871 10.5376L51.141 15.2676C47.467 12.8036 42.4345 13.1923 39.1895 16.4373L37.1086 18.5181L36.4615 17.871C35.7446 17.1541 34.586 17.1541 33.8691 17.871C33.1523 18.5878 33.1523 19.7465 33.8691 20.4633L48.5358 35.13C48.8933 35.4875 49.3626 35.6671 49.832 35.6671C50.3013 35.6671 50.7706 35.4875 51.1281 35.13C51.845 34.4131 51.845 33.2545 51.1281 32.5376L50.481 31.8905L52.5618 29.8096C55.8068 26.5665 56.1955 21.5321 53.7315 17.8581L58.4615 13.1281C59.1783 12.4113 59.1783 11.2526 58.4615 10.5358L58.4633 10.5376Z" fill="#D2D2D2"/>
</svg>
