<svg width="64" height="64" viewBox="0 0 64 64" fill="none" xmlns="http://www.w3.org/2000/svg">
<path d="M32 14.125C32.8937 14.125 33.625 13.3938 33.625 12.5V9.25C33.625 8.35625 32.8937 7.625 32 7.625C31.1062 7.625 30.375 8.35625 30.375 9.25V12.5C30.375 13.3938 31.1062 14.125 32 14.125Z" fill="#CACACA"/>
<path d="M43.375 23.875C43.375 24.7687 44.1062 25.5 45 25.5H48.25C49.1438 25.5 49.875 24.7687 49.875 23.875C49.875 22.9812 49.1438 22.25 48.25 22.25H45C44.1062 22.25 43.375 22.9812 43.375 23.875Z" fill="#CACACA"/>
<path d="M15.75 25.5H19C19.8938 25.5 20.625 24.7687 20.625 23.875C20.625 22.9812 19.8938 22.25 19 22.25H15.75C14.8562 22.25 14.125 22.9812 14.125 23.875C14.125 24.7687 14.8562 25.5 15.75 25.5Z" fill="#CACACA"/>
<path d="M41.1975 17.9275C41.62 17.9275 42.0263 17.765 42.3513 17.4562L44.6425 15.165C45.2763 14.5312 45.2763 13.5075 44.6425 12.8737C44.0088 12.24 42.985 12.24 42.3513 12.8737L40.06 15.165C39.4263 15.7987 39.4263 16.8225 40.06 17.4562C40.385 17.7812 40.7913 17.9275 41.2138 17.9275H41.1975Z" fill="#CACACA"/>
<path d="M21.6651 17.4562C21.9901 17.7812 22.3964 17.9275 22.8189 17.9275C23.2414 17.9275 23.6476 17.765 23.9726 17.4562C24.6064 16.8225 24.6064 15.7987 23.9726 15.165L21.6814 12.8737C21.0476 12.24 20.0239 12.24 19.3901 12.8737C18.7564 13.5075 18.7564 14.5312 19.3901 15.165L21.6814 17.4562H21.6651Z" fill="#CACACA"/>
<path d="M40.125 25.5C40.125 21.015 36.485 17.375 32 17.375C27.515 17.375 23.875 21.015 23.875 25.5H40.125Z" fill="#CACACA"/>
<path d="M45 53.125H37.6875V51.5H26.3125V53.125H19C18.1062 53.125 17.375 53.8563 17.375 54.75C17.375 55.6438 18.1062 56.375 19 56.375H45C45.8937 56.375 46.625 55.6438 46.625 54.75C46.625 53.8563 45.8937 53.125 45 53.125Z" fill="#CACACA"/>
<path d="M22.0713 48.25H41.9288L40.4013 40.125H23.5988L22.0713 48.25Z" fill="#CACACA"/>
<path d="M41.5712 28.75L43.0987 36.875H53.5149L51.4187 29.9038C51.2074 29.2213 50.5737 28.75 49.8587 28.75H41.5549H41.5712Z" fill="#CACACA"/>
<path d="M25.7275 28.75L24.2 36.875H39.8L38.2725 28.75H25.7275Z" fill="#CACACA"/>
<path d="M56.3101 46.1537L54.5063 40.125H43.7163L45.2438 48.25H54.7663C55.2863 48.25 55.7576 48.0063 56.0663 47.6C56.3751 47.1938 56.4726 46.6575 56.3263 46.17L56.3101 46.1537Z" fill="#CACACA"/>
<path d="M20.3001 40.1246H9.51012L7.70637 46.1534C7.56012 46.6409 7.65762 47.1771 7.96637 47.5834C8.27512 47.9896 8.76262 48.2334 9.26637 48.2334H18.7889L20.3164 40.1084L20.3001 40.1246Z" fill="#CACACA"/>
<path d="M22.4287 28.75H14.125C13.41 28.75 12.7762 29.2213 12.565 29.9038L10.4688 36.875H20.885L22.4125 28.75H22.4287Z" fill="#CACACA"/>
</svg>
