<svg width="50" height="50" viewBox="0 0 50 50" fill="none" xmlns="http://www.w3.org/2000/svg">
<path d="M34.1555 45.6909H30.6297L30.1385 43.6768H19.862L19.3708 45.6909H15.845C15.0865 45.6909 14.4717 46.3058 14.4717 47.0642C14.4717 47.8226 15.0865 48.4375 15.845 48.4375H34.1555C34.9139 48.4375 35.5288 47.8226 35.5288 47.0642C35.5288 46.3058 34.9139 45.6909 34.1555 45.6909Z" fill="#002C5F"/>
<path d="M15.0679 30.8594H23.6289V23.5352H15.9834L15.0679 30.8594Z" fill="#002C5F"/>
<path d="M23.6284 33.606H14.7241L13.8086 40.9302H23.6284V33.606Z" fill="#002C5F"/>
<path d="M26.373 33.606V40.9302H36.1929L35.2774 33.606H26.373Z" fill="#002C5F"/>
<path d="M26.373 30.8594H34.9341L34.0185 23.5352H26.373V30.8594Z" fill="#002C5F"/>
<path d="M44.7351 24.5754C44.5823 23.9641 44.033 23.5352 43.4029 23.5352H36.7881L37.7036 30.8594H46.3062L44.7351 24.5754Z" fill="#002C5F"/>
<path d="M48.3953 39.2238L46.9908 33.606H38.0449L38.9604 40.9302H47.063C47.9564 40.9302 48.612 40.0905 48.3953 39.2238Z" fill="#002C5F"/>
<path d="M1.60418 39.2238C1.38748 40.0905 2.04309 40.9302 2.93646 40.9302H11.039L11.9545 33.606H3.00869L1.60418 39.2238Z" fill="#002C5F"/>
<path d="M5.26431 24.5754L3.69336 30.8594H12.2959L13.2115 23.5352H6.59659C5.96643 23.5352 5.41721 23.964 5.26431 24.5754Z" fill="#002C5F"/>
<path d="M16.5837 18.8387C16.7427 19.4477 17.2901 19.873 17.9149 19.873H32.0855C32.7103 19.873 33.2577 19.4477 33.4167 18.8388C33.6032 18.1252 33.6978 17.3951 33.6978 16.6687C33.6978 11.8729 29.7961 7.97119 25.0002 7.97119C20.2044 7.97119 16.3027 11.8729 16.3027 16.6687C16.3027 17.3951 16.3973 18.1252 16.5837 18.8387Z" fill="#002C5F"/>
<path d="M38.7332 18.042C39.4916 18.042 40.1065 17.4271 40.1065 16.6687C40.1065 15.9103 39.4916 15.2954 38.7332 15.2954H36.3617C36.4158 15.7458 36.4444 16.204 36.4444 16.6687C36.4444 17.1266 36.4152 17.5853 36.3589 18.042H38.7332Z" fill="#002C5F"/>
<path d="M13.6383 15.2954H11.2668C10.5084 15.2954 9.89355 15.9103 9.89355 16.6687C9.89355 17.4271 10.5084 18.042 11.2668 18.042H13.6412C13.5849 17.5854 13.5557 17.1267 13.5557 16.6687C13.5557 16.204 13.5842 15.7458 13.6383 15.2954Z" fill="#002C5F"/>
<path d="M26.3735 5.30728V2.93579C26.3735 2.17737 25.7587 1.5625 25.0002 1.5625C24.2418 1.5625 23.627 2.17737 23.627 2.93579V5.30728C24.0774 5.25317 24.5355 5.22461 25.0002 5.22461C25.465 5.22461 25.9231 5.25317 26.3735 5.30728Z" fill="#002C5F"/>
<path d="M34.0012 9.60909L35.6815 7.92882C36.2178 7.3925 36.2178 6.52303 35.6815 5.98671C35.1451 5.45039 34.2757 5.45039 33.7393 5.98671L32.0591 7.66698C32.7813 8.23451 33.4337 8.88701 34.0012 9.60909Z" fill="#002C5F"/>
<path d="M15.9985 9.60909C16.5661 8.88692 17.2186 8.23451 17.9406 7.66698L16.2604 5.98671C15.724 5.45039 14.8546 5.45039 14.3183 5.98671C13.7819 6.52303 13.7819 7.3925 14.3183 7.92882L15.9985 9.60909Z" fill="#002C5F"/>
</svg>
