<svg width="64" height="64" viewBox="0 0 64 64" fill="none" xmlns="http://www.w3.org/2000/svg">
<path d="M35.354 8.20139C35.0826 8.15144 34.8035 8.16178 34.5366 8.23168C34.2696 8.30157 34.0213 8.42931 33.8092 8.60584C33.5971 8.78238 33.4264 9.00339 33.3092 9.25322C33.1921 9.50306 33.1313 9.7756 33.1311 10.0515V15.4703C30.8522 15.1679 28.5344 15.3945 26.3571 16.1323C24.1799 16.8702 22.2019 18.0995 20.5764 19.725C18.9508 21.3506 17.7215 23.3286 16.9836 25.5058C16.2458 27.683 16.0192 30.0009 16.3216 32.2798H10.9029C10.6269 32.2799 10.3544 32.3408 10.1045 32.4579C9.8547 32.5751 9.63369 32.7458 9.45715 32.9579C9.28062 33.17 9.15288 33.4183 9.08299 33.6852C9.01309 33.9522 9.00275 34.2312 9.0527 34.5026C9.79805 38.5521 11.6362 42.3208 14.3684 45.4012C17.1006 48.4816 20.6229 50.7565 24.5545 51.9799C28.486 53.2034 32.6772 53.3288 36.6749 52.3426C40.6725 51.3565 44.3245 49.2963 47.2361 46.3847C50.1476 43.4732 52.2078 39.8212 53.194 35.8235C54.1801 31.8259 54.0547 27.6347 52.8313 23.7032C51.6078 19.7716 49.3329 16.2493 46.2525 13.5171C43.1721 10.7849 39.4034 8.94674 35.354 8.20139ZM31.249 34.162C30.5909 34.1601 29.9448 33.9853 29.3756 33.6549C28.8064 33.3245 28.3341 32.8503 28.006 32.2798H23.7203C23.2212 32.2798 22.7424 32.0815 22.3895 31.7285C22.0365 31.3756 21.8382 30.8968 21.8382 30.3977C21.8382 29.8985 22.0365 29.4197 22.3895 29.0668C22.7424 28.7138 23.2212 28.5155 23.7203 28.5155H28.006C28.334 27.9517 28.803 27.4827 29.3668 27.1547V20.9869C29.3668 20.4877 29.5651 20.009 29.9181 19.656C30.2711 19.303 30.7498 19.1047 31.249 19.1047C31.7481 19.1047 32.2269 19.303 32.5799 19.656C32.9328 20.009 33.1311 20.4877 33.1311 20.9869V27.1547C33.849 27.5671 34.4104 28.2054 34.7279 28.97C35.0453 29.7347 35.101 30.5829 34.8862 31.3825C34.6714 32.1821 34.1983 32.8883 33.5404 33.391C32.8825 33.8937 32.0769 34.1648 31.249 34.162ZM27.432 8C27.8042 8 28.1681 8.11039 28.4776 8.3172C28.7871 8.52401 29.0284 8.81797 29.1708 9.16189C29.3133 9.50581 29.3506 9.88424 29.2779 10.2493C29.2053 10.6144 29.0261 10.9498 28.7628 11.213C28.4996 11.4763 28.1642 11.6555 27.7991 11.7281C27.434 11.8008 27.0556 11.7635 26.7117 11.621C26.3678 11.4786 26.0738 11.2373 25.867 10.9278C25.6602 10.6183 25.5498 10.2544 25.5498 9.88216C25.5498 9.38298 25.7481 8.90424 26.1011 8.55127C26.454 8.1983 26.9328 8 27.432 8ZM19.7151 11.3051C20.0874 11.3051 20.4513 11.4155 20.7608 11.6223C21.0703 11.8291 21.3115 12.123 21.454 12.467C21.5965 12.8109 21.6337 13.1893 21.5611 13.5544C21.4885 13.9195 21.3092 14.2549 21.046 14.5181C20.7828 14.7813 20.4474 14.9606 20.0823 15.0332C19.7172 15.1058 19.3388 15.0686 18.9948 14.9261C18.6509 14.7837 18.357 14.5424 18.1502 14.2329C17.9433 13.9234 17.833 13.5595 17.833 13.1872C17.832 12.6884 18.029 12.2095 18.3809 11.8559C18.7328 11.5023 19.2106 11.3028 19.7095 11.3013L19.7151 11.3051ZM13.8936 16.9233C14.2659 16.9233 14.6298 17.0337 14.9393 17.2405C15.2488 17.4473 15.49 17.7413 15.6325 18.0852C15.7749 18.4291 15.8122 18.8075 15.7396 19.1726C15.667 19.5378 15.4877 19.8731 15.2245 20.1363C14.9613 20.3996 14.6259 20.5788 14.2608 20.6514C13.8957 20.7241 13.5173 20.6868 13.1733 20.5443C12.8294 20.4019 12.5355 20.1606 12.3287 19.8511C12.1218 19.5416 12.0114 19.1777 12.0114 18.8055C12.0114 18.3063 12.2097 17.8275 12.5627 17.4746C12.9157 17.1216 13.3944 16.9233 13.8936 16.9233ZM10.8822 24.7662C11.2544 24.7662 11.6183 24.8766 11.9278 25.0834C12.2373 25.2903 12.4786 25.5842 12.621 25.9281C12.7635 26.272 12.8008 26.6505 12.7281 27.0156C12.6555 27.3807 12.4763 27.7161 12.213 27.9793C11.9498 28.2425 11.6144 28.4218 11.2493 28.4944C10.8842 28.567 10.5058 28.5297 10.1619 28.3873C9.81797 28.2448 9.52401 28.0036 9.3172 27.6941C9.11039 27.3846 9 27.0207 9 26.6484C9 26.1499 9.19778 25.6717 9.54994 25.3188C9.9021 24.966 10.3799 24.7672 10.8784 24.7662H10.8822Z" fill="#CACACA"/>
<path d="M56.4224 44.1038L56.4222 44.104L46.2115 56.3805L46.2048 56.3886L46.1979 56.3965C45.9322 56.7026 45.5685 56.9073 45.1687 56.9752L45.0011 55.9894L45.1686 56.9752C44.7687 57.0432 44.3578 56.9702 44.0058 56.7688C43.6539 56.5675 43.3829 56.2504 43.2385 55.8719L44.1711 55.5162L43.2385 55.8719C43.0942 55.4935 43.0852 55.0767 43.2132 54.6924L43.2165 54.6824L43.22 54.6725L46.1313 46.5056H44.4929H44.483L44.483 46.5055C44.0739 46.5015 43.6721 46.3973 43.3126 46.2021C42.9531 46.007 42.6468 45.7269 42.4204 45.3864C42.1939 45.0458 42.054 44.6551 42.0128 44.2483C41.9716 43.8415 42.0302 43.4307 42.1837 43.0517L42.1872 43.043L42.1872 43.043L45.3072 35.5403C45.3073 35.5401 45.3074 35.5398 45.3076 35.5395C45.4966 35.0835 45.8166 34.6936 46.2274 34.4194C46.6381 34.1453 47.1209 33.9992 47.6147 34M56.4224 44.1038L47.6138 35M56.4224 44.1038C56.7265 43.7379 56.919 43.2937 56.9795 42.8236L55.9877 42.6959M56.4224 44.1038L55.6534 43.4645C55.8356 43.2454 55.9513 42.9788 55.9877 42.6959M47.6147 34C47.6151 34 47.6155 34 47.6159 34L47.6138 35M47.6147 34H47.6138V35M47.6147 34H51.7547H51.7668L51.7668 34.0001C52.2097 34.0055 52.6432 34.1282 53.0232 34.3556C53.4032 34.583 53.7162 34.907 53.9305 35.2945C54.1448 35.6819 54.2529 36.1191 54.2439 36.5617C54.235 37.0043 54.1093 37.4368 53.8795 37.8152L53.8733 37.8255L53.8732 37.8254L52.515 40.0032M47.6138 35H51.7547C52.0207 35.0032 52.2812 35.077 52.5097 35.2137C52.7381 35.3504 52.9264 35.5453 53.0554 35.7785C53.1844 36.0117 53.2495 36.2749 53.2441 36.5415C53.2387 36.8081 53.163 37.0684 53.0247 37.2962L51.3365 40.0032H52.515M52.515 40.0032L51.8913 41.0032H54.5025C54.7871 41.0033 55.0659 41.0846 55.306 41.2377M52.515 40.0032H54.5025H54.5028C54.9778 40.0033 55.4429 40.1391 55.8435 40.3944L55.306 41.2377M55.306 41.2377L55.8435 40.3944C56.244 40.6496 56.5634 41.0138 56.7645 41.444C56.9656 41.8741 57.0401 42.3527 56.9795 42.8236L55.9877 42.6959M55.306 41.2377C55.5462 41.3907 55.7379 41.6092 55.8586 41.8674C55.9793 42.1257 56.0241 42.4131 55.9877 42.6959" fill="#CACACA" stroke="#FBFBFB" stroke-width="2"/>
</svg>
