<svg width="40" height="18" viewBox="0 0 40 18" fill="none" xmlns="http://www.w3.org/2000/svg">
<rect width="40" height="18" fill="#CCCCCC"/>
<path d="M5.388 5.536V10.24C6.42 10.216 7.356 10.156 8.412 9.964L8.532 11.248C7.188 11.5 6.012 11.548 4.596 11.548H3.828V4.252H7.92V5.536H5.388ZM11.496 2.968H12.996V14.032H11.496V8.5H10.5V13.516H9.024V3.184H10.5V7.228H11.496V2.968ZM15.1671 4.12H20.4711C20.4711 7.504 19.3311 10.264 15.4071 12.16L14.5791 10.912C17.3991 9.556 18.6231 7.828 18.8511 5.38H15.1671V4.12ZM22.1631 2.968H23.7591V14.02H22.1631V2.968ZM26.5541 7.564L26.0261 6.34C28.0781 6.16 29.1581 5.44 29.4341 4.696H26.5061V3.436H34.6781V4.696H31.7381C32.0141 5.44 33.0941 6.16 35.1581 6.34L34.6061 7.564C32.5301 7.384 31.1741 6.604 30.5861 5.56C29.9981 6.604 28.6421 7.384 26.5541 7.564ZM32.7941 12.04C32.7941 11.476 32.0381 11.236 30.5621 11.236C29.0861 11.236 28.3301 11.476 28.3301 12.04C28.3301 12.592 29.0861 12.832 30.5621 12.832C32.0381 12.832 32.7941 12.592 32.7941 12.04ZM35.5781 9.256H31.3781V10.072C33.2741 10.228 34.4021 10.912 34.4021 12.04C34.4021 13.312 32.9501 14.032 30.5621 14.032C28.1741 14.032 26.7341 13.312 26.7341 12.04C26.7341 10.9 27.8741 10.216 29.7941 10.06V9.256H25.5941V7.996H35.5781V9.256Z" fill="white"/>
</svg>
