<svg width="50" height="28" viewBox="0 0 50 28" fill="none" xmlns="http://www.w3.org/2000/svg">
<rect width="50" height="28" fill="#EF726A"/>
<path d="M19.232 11.896L19.376 12.984C16.976 13.464 14.816 13.624 12.672 13.624H11.552V6.888H12.848V12.52C14.88 12.504 16.944 12.36 19.232 11.896ZM14.416 15.208V18.792H22.496V19.864H13.104V15.208H14.416ZM21.984 10.104H24.096V11.208H21.984V16.216H20.672V5.848H21.984V10.104ZM31.5188 12.296V9.928H27.4548V12.296H31.5188ZM32.7987 6.744V13.352H26.1588V6.744H27.4548V8.904H31.5188V6.744H32.7987ZM32.1428 19.144C34.2548 19.144 35.5508 18.536 35.5508 17.512C35.5508 16.488 34.2548 15.896 32.1428 15.896C29.9988 15.896 28.7188 16.488 28.7188 17.512C28.7188 18.536 29.9988 19.144 32.1428 19.144ZM32.1428 14.84C35.0548 14.84 36.8628 15.816 36.8628 17.512C36.8628 19.208 35.0548 20.184 32.1428 20.184C29.2148 20.184 27.4068 19.208 27.4068 17.512C27.4068 15.816 29.2148 14.84 32.1428 14.84ZM36.7028 9.448H38.8308V10.536H36.7028V14.472H35.3908V5.832H36.7028V9.448Z" fill="white"/>
</svg>
