<svg width="24" height="24" viewBox="0 0 24 24" fill="none" xmlns="http://www.w3.org/2000/svg">
<path d="M17.1945 12.2508C17.8923 12.4744 18.5378 12.8427 19.0905 13.3354C20.077 12.6095 20.7186 11.441 20.7186 10.125C20.7186 7.92802 18.9313 6.14062 16.7343 6.14062C15.6311 6.14062 14.6021 6.59545 13.8643 7.36158C15.5522 8.45484 16.7835 10.199 17.1945 12.2508Z" fill="#002C5F"/>
<path d="M15.5859 21.1406H3.86719C1.7348 21.1406 0 19.4058 0 17.2734C0 15.2565 1.55212 13.5953 3.52463 13.4213C3.69998 10.1524 6.4147 7.54688 9.72656 7.54688C13.0384 7.54688 15.7531 10.1524 15.9285 13.4213C17.901 13.5953 19.4531 15.2565 19.4531 17.2734C19.4531 19.4058 17.7183 21.1406 15.5859 21.1406Z" fill="#002C5F"/>
<path d="M23.2969 10.8281H22.3594C21.9711 10.8281 21.6562 10.5133 21.6562 10.125C21.6562 9.73669 21.9711 9.42188 22.3594 9.42188H23.2969C23.6852 9.42188 24 9.73669 24 10.125C24 10.5133 23.6852 10.8281 23.2969 10.8281Z" fill="#002C5F"/>
<path d="M20.2147 6.6447C19.9401 6.37011 19.9401 5.92489 20.2147 5.65035L20.8776 4.98744C21.1522 4.71285 21.5974 4.71285 21.872 4.98744C22.1466 5.26203 22.1466 5.7072 21.872 5.9818L21.2091 6.6447C20.9345 6.9193 20.4893 6.9193 20.2147 6.6447Z" fill="#002C5F"/>
<path d="M16.7344 5.20312C16.3461 5.20312 16.0312 4.88831 16.0312 4.5V3.5625C16.0312 3.17419 16.3461 2.85938 16.7344 2.85938C17.1227 2.85938 17.4375 3.17419 17.4375 3.5625V4.5C17.4375 4.88831 17.1227 5.20312 16.7344 5.20312Z" fill="#002C5F"/>
<path d="M12.2595 6.6447L11.5966 5.9818C11.322 5.7072 11.322 5.26203 11.5966 4.98744C11.8712 4.71285 12.3163 4.71285 12.5909 4.98744L13.2538 5.65035C13.5284 5.92494 13.5284 6.37011 13.2538 6.6447C12.9793 6.9193 12.5341 6.9193 12.2595 6.6447Z" fill="#002C5F"/>
<path d="M20.8776 15.2626L20.2147 14.5997C19.9401 14.3251 19.9401 13.88 20.2147 13.6054C20.4893 13.3308 20.9345 13.3308 21.2091 13.6054L21.872 14.2683C22.1466 14.5429 22.1466 14.988 21.872 15.2626C21.5974 15.5372 21.1522 15.5372 20.8776 15.2626Z" fill="#002C5F"/>
</svg>
