<svg width="24" height="24" viewBox="0 0 24 24" fill="none" xmlns="http://www.w3.org/2000/svg">
<g clip-path="url(#clip0_1078_29211)">
<path d="M13.5381 24C12.5548 24 11.6303 23.6171 10.935 22.9217C10.3522 22.3389 10.0312 21.5641 10.0312 20.7398C10.0312 19.9156 10.3522 19.1408 10.935 18.558C11.4278 18.0651 12.0831 17.7937 12.78 17.7937C13.4769 17.7937 14.1322 18.0651 14.625 18.558C14.8995 18.8325 14.8995 19.2777 14.625 19.5523C14.3504 19.8269 13.9051 19.827 13.6306 19.5523C13.4034 19.3251 13.1013 19.2 12.78 19.2C12.4587 19.2 12.1566 19.3251 11.9294 19.5523C11.6122 19.8696 11.4375 20.2913 11.4375 20.7398C11.4375 21.1884 11.6122 21.6102 11.9294 21.9274C12.3591 22.3571 12.9304 22.5938 13.5381 22.5938C14.1458 22.5938 14.7171 22.3571 15.1468 21.9274C15.7171 21.357 16.0312 20.5988 16.0312 19.7922C16.0312 18.9856 15.7171 18.2273 15.1468 17.657C14.4007 16.9109 13.4087 16.5 12.3535 16.5H7.82812C7.43981 16.5 7.125 16.1852 7.125 15.7969C7.125 15.4086 7.43981 15.0938 7.82812 15.0938H12.3535C13.7843 15.0938 15.1295 15.651 16.1412 16.6627C16.9771 17.4986 17.4375 18.61 17.4375 19.7922C17.4375 20.9743 16.9771 22.0858 16.1412 22.9217C15.4459 23.6171 14.5215 24 13.5381 24Z" fill="#002C5F"/>
<path d="M5.01562 16.5H0.703125C0.314812 16.5 0 16.1852 0 15.7969C0 15.4086 0.314812 15.0938 0.703125 15.0938H5.01562C5.40394 15.0938 5.71875 15.4086 5.71875 15.7969C5.71875 16.1852 5.40394 16.5 5.01562 16.5Z" fill="#002C5F"/>
<path d="M5.01562 21.6562C5.40395 21.6562 5.71875 21.3415 5.71875 20.9531C5.71875 20.5648 5.40395 20.25 5.01562 20.25C4.6273 20.25 4.3125 20.5648 4.3125 20.9531C4.3125 21.3415 4.6273 21.6562 5.01562 21.6562Z" fill="#002C5F"/>
<path d="M19.7812 3.60938C20.1696 3.60938 20.4844 3.29458 20.4844 2.90625C20.4844 2.51792 20.1696 2.20312 19.7812 2.20312C19.3929 2.20312 19.0781 2.51792 19.0781 2.90625C19.0781 3.29458 19.3929 3.60938 19.7812 3.60938Z" fill="#002C5F"/>
<path d="M2.90625 6.89062C3.29458 6.89062 3.60938 6.57583 3.60938 6.1875C3.60938 5.79917 3.29458 5.48438 2.90625 5.48438C2.51792 5.48438 2.20312 5.79917 2.20312 6.1875C2.20312 6.57583 2.51792 6.89062 2.90625 6.89062Z" fill="#002C5F"/>
<path d="M18.916 13.6875H5.95312C5.56481 13.6875 5.25 13.3727 5.25 12.9844C5.25 12.5961 5.56481 12.2812 5.95312 12.2812H18.916C19.9712 12.2812 20.9632 11.8703 21.7093 11.1242C22.2796 10.5539 22.5938 9.79566 22.5938 8.98908C22.5938 8.1825 22.2796 7.4242 21.7093 6.85388C21.2796 6.42417 20.7083 6.1875 20.1006 6.1875C19.4929 6.1875 18.9216 6.42417 18.4919 6.85388C18.1747 7.17103 18 7.59277 18 8.04141C18 8.48995 18.1747 8.91169 18.4919 9.22894C18.7191 9.45614 19.0212 9.5813 19.3425 9.5813C19.6638 9.5813 19.9659 9.45614 20.1931 9.22894C20.4677 8.95439 20.9129 8.9543 21.1875 9.22894C21.462 9.50348 21.462 9.94866 21.1875 10.2233C20.6947 10.7161 20.0394 10.9875 19.3425 10.9875C18.6456 10.9875 17.9903 10.7161 17.4975 10.2232C16.9147 9.64045 16.5938 8.86561 16.5938 8.04141C16.5938 7.21716 16.9147 6.44231 17.4975 5.85952C18.1928 5.16417 19.1173 4.78125 20.1006 4.78125C21.084 4.78125 22.0084 5.16417 22.7037 5.85952C23.5396 6.69544 24 7.80689 24 8.98908C24 10.1713 23.5396 11.2827 22.7037 12.1186C21.692 13.1303 20.3468 13.6875 18.916 13.6875Z" fill="#002C5F"/>
<path d="M3.14062 13.6875H0.703125C0.314812 13.6875 0 13.3727 0 12.9844C0 12.5961 0.314812 12.2812 0.703125 12.2812H3.14062C3.52894 12.2812 3.84375 12.5961 3.84375 12.9844C3.84375 13.3727 3.52894 13.6875 3.14062 13.6875Z" fill="#002C5F"/>
<path d="M15.2214 5.83741L13.5817 6.27677L12.7142 5.77591C12.7374 5.6509 12.7501 5.52227 12.7501 5.3907C12.7501 5.25912 12.7374 5.13045 12.7142 5.00548L13.5817 4.50462L15.2214 4.94398C15.5965 5.04448 15.9821 4.82187 16.0826 4.44677C16.1831 4.07168 15.9604 3.68613 15.5854 3.58563L14.3435 3.25291L14.6763 2.0111C14.7768 1.63601 14.5542 1.25046 14.1792 1.14996C13.8041 1.04946 13.4185 1.27207 13.318 1.64712L12.8787 3.28676L12.0102 3.78818C11.8154 3.62149 11.5902 3.48959 11.3439 3.40226V2.40063L12.5442 1.20035C12.8188 0.925758 12.8188 0.480586 12.5442 0.205992C12.2697 -0.0686016 11.8245 -0.0686016 11.5499 0.205992L10.6407 1.11504L9.73165 0.205945C9.45706 -0.0686484 9.01189 -0.0686484 8.73729 0.205945C8.4627 0.480539 8.4627 0.925711 8.73729 1.2003L9.93762 2.40063V3.40221C9.69134 3.48959 9.46615 3.62145 9.27139 3.78813L8.40289 3.28671L7.96353 1.64707C7.86303 1.27198 7.47748 1.04941 7.10239 1.14991C6.72729 1.25041 6.50468 1.63596 6.60523 2.01105L6.938 3.25287L5.69618 3.58559C5.32109 3.68609 5.09848 4.07163 5.19898 4.44673C5.29948 4.82182 5.68503 5.04443 6.06012 4.94393L7.69981 4.50457L8.56732 5.00543C8.54407 5.1304 8.53137 5.25902 8.53137 5.39065C8.53137 5.52227 8.54408 5.6509 8.56728 5.77587L7.69976 6.27673L6.06008 5.83737C5.68498 5.73687 5.29943 5.95948 5.19893 6.33457C5.09843 6.70966 5.32104 7.09521 5.69614 7.19571L6.93795 7.52843L6.60518 8.77024C6.50468 9.14534 6.72725 9.53088 7.10234 9.63138C7.47743 9.73188 7.86298 9.50932 7.96348 9.13423L8.40284 7.49459L9.27134 6.99316C9.46611 7.15985 9.69129 7.29176 9.93757 7.37909V8.38066L8.73725 9.58095C8.46265 9.85554 8.46265 10.3007 8.73725 10.5753C9.01184 10.8499 9.45701 10.8499 9.73161 10.5753L10.6407 9.66626L11.5498 10.5754C11.8244 10.8499 12.2696 10.8499 12.5442 10.5754C12.8188 10.3008 12.8188 9.85559 12.5442 9.58099L11.3439 8.38066V7.37909C11.5902 7.29171 11.8153 7.15985 12.0101 6.99316L12.8786 7.49459L13.318 9.13423C13.4185 9.50932 13.804 9.73193 14.1791 9.63138C14.5542 9.53088 14.7768 9.14534 14.6763 8.77024L14.3435 7.52843L15.5853 7.19571C15.9604 7.09521 16.183 6.70966 16.0825 6.33457C15.9821 5.95948 15.5965 5.73687 15.2214 5.83741ZM10.6407 4.68752C11.0285 4.68752 11.3439 5.00295 11.3439 5.39065C11.3439 5.77835 11.0285 6.09377 10.6407 6.09377C10.253 6.09377 9.93762 5.77835 9.93762 5.39065C9.93762 5.00295 10.253 4.68752 10.6407 4.68752Z" fill="#002C5F"/>
</g>
<defs>
<clipPath id="clip0_1078_29211">
<rect width="24" height="24" fill="white"/>
</clipPath>
</defs>
</svg>
