<svg width="24" height="24" viewBox="0 0 24 24" fill="none" xmlns="http://www.w3.org/2000/svg">
<g clip-path="url(#clip0_1078_29198)">
<path d="M3.5625 12.7031H0.703125C0.314812 12.7031 0 12.3883 0 12C0 11.6117 0.314812 11.2969 0.703125 11.2969H3.5625C3.95081 11.2969 4.26562 11.6117 4.26562 12C4.26562 12.3883 3.95081 12.7031 3.5625 12.7031Z" fill="#002C5F"/>
<path d="M8.12117 4.47379L7.583 3.17451C7.43441 2.81573 7.60475 2.40445 7.96353 2.25585H7.96358C8.32236 2.10726 8.73364 2.2776 8.88223 2.63638L9.42041 3.93566C9.569 4.29445 9.39866 4.70573 9.03988 4.85432H9.03983C8.68105 5.00291 8.26977 4.83252 8.12117 4.47379Z" fill="#002C5F"/>
<path d="M3.93562 9.42065L2.63638 8.88248C2.2776 8.73388 2.10726 8.32256 2.25585 7.96382V7.96378C2.40445 7.60499 2.81577 7.43465 3.17451 7.58324L4.47374 8.12142C4.83252 8.27001 5.00287 8.68134 4.85427 9.04007V9.04012C4.70568 9.39885 4.29435 9.56924 3.93562 9.42065Z" fill="#002C5F"/>
<path d="M19.1455 9.04012C18.9969 8.68134 19.1673 8.27001 19.526 8.12142L20.8253 7.58324C21.1841 7.43465 21.5954 7.60499 21.744 7.96378V7.96382C21.8926 8.3226 21.7222 8.73388 21.3634 8.88248L20.0642 9.42065C19.7054 9.56924 19.2941 9.39885 19.1455 9.04012Z" fill="#002C5F"/>
<path d="M14.9597 4.85432C14.6009 4.70573 14.4305 4.2944 14.5791 3.93566L15.1173 2.63638C15.2659 2.2776 15.6772 2.10726 16.0359 2.25585H16.036C16.3947 2.40445 16.5651 2.81577 16.4165 3.17451L15.8783 4.47379C15.7297 4.83252 15.3184 5.00291 14.9597 4.85432Z" fill="#002C5F"/>
<path d="M12 18.3281C8.51067 18.3281 5.67188 15.4893 5.67188 12C5.67188 8.51067 8.51067 5.67188 12 5.67188C15.4893 5.67188 18.3281 8.51067 18.3281 12C18.3281 15.4893 15.4893 18.3281 12 18.3281Z" fill="#002C5F"/>
<path d="M12 24C11.6116 24 11.2969 23.6852 11.2969 23.2969V20.4375C11.2969 20.0492 11.6117 19.7344 12 19.7344C12.3883 19.7344 12.7031 20.0492 12.7031 20.4375V23.2969C12.7031 23.6852 12.3883 24 12 24Z" fill="#002C5F"/>
<path d="M12 4.26562C11.6116 4.26562 11.2969 3.95081 11.2969 3.5625V0.703125C11.2969 0.314812 11.6117 0 12 0C12.3883 0 12.7031 0.314812 12.7031 0.703125V3.5625C12.7031 3.95081 12.3883 4.26562 12 4.26562Z" fill="#002C5F"/>
<path d="M23.2969 12.7031H20.4375C20.0492 12.7031 19.7344 12.3883 19.7344 12C19.7344 11.6117 20.0492 11.2969 20.4375 11.2969H23.2969C23.6852 11.2969 24 11.6117 24 12C24 12.3883 23.6852 12.7031 23.2969 12.7031Z" fill="#002C5F"/>
<path d="M3.51454 20.4854C3.23995 20.2108 3.23995 19.7656 3.51454 19.491L5.53645 17.4691C5.81104 17.1945 6.25621 17.1945 6.5308 17.4691C6.8054 17.7437 6.8054 18.1889 6.5308 18.4635L4.5089 20.4854C4.2343 20.7599 3.78913 20.7599 3.51454 20.4854Z" fill="#002C5F"/>
<path d="M19.4905 20.4854L17.4686 18.4635C17.194 18.1889 17.194 17.7437 17.4686 17.4691C17.7432 17.1945 18.1884 17.1945 18.463 17.4691L20.4849 19.491C20.7595 19.7656 20.7595 20.2108 20.4849 20.4854C20.2103 20.7599 19.7651 20.7599 19.4905 20.4854Z" fill="#002C5F"/>
<path d="M5.5364 6.53105L3.51454 4.50914C3.23995 4.23455 3.23995 3.78938 3.51454 3.51478C3.78913 3.24019 4.2343 3.24019 4.5089 3.51478L6.5308 5.53669C6.8054 5.81128 6.8054 6.25645 6.5308 6.53105C6.25616 6.80564 5.81099 6.80564 5.5364 6.53105Z" fill="#002C5F"/>
<path d="M17.4686 6.53105C17.194 6.25645 17.194 5.81128 17.4686 5.53669L19.4905 3.51478C19.7651 3.24019 20.2103 3.24019 20.4849 3.51478C20.7595 3.78938 20.7595 4.23455 20.4849 4.50914L18.463 6.53105C18.1884 6.80564 17.7432 6.80564 17.4686 6.53105Z" fill="#002C5F"/>
<path d="M7.96357 21.744C7.60479 21.5954 7.4344 21.184 7.58299 20.8253L8.12116 19.526C8.26976 19.1673 8.68109 18.9969 9.03982 19.1455H9.03987C9.39865 19.2941 9.56899 19.7054 9.4204 20.0642L8.88223 21.3634C8.73363 21.7222 8.32231 21.8926 7.96357 21.744Z" fill="#002C5F"/>
<path d="M2.25585 16.0362C2.10726 15.6774 2.2776 15.2661 2.63638 15.1175L3.93562 14.5793C4.2944 14.4307 4.70568 14.6011 4.85427 14.9599V14.9599C5.00287 15.3187 4.83252 15.73 4.47374 15.8786L3.17451 16.4167C2.81577 16.5653 2.40445 16.3949 2.25585 16.0362Z" fill="#002C5F"/>
<path d="M20.8253 16.4167L19.526 15.8786C19.1673 15.73 18.9969 15.3187 19.1455 14.9599V14.9599C19.2941 14.6011 19.7054 14.4307 20.0642 14.5793L21.3634 15.1175C21.7222 15.2661 21.8926 15.6774 21.744 16.0362V16.0362C21.5954 16.3949 21.184 16.5653 20.8253 16.4167Z" fill="#002C5F"/>
<path d="M15.1173 21.3634L14.5791 20.0642C14.4305 19.7054 14.6008 19.2941 14.9596 19.1455H14.9597C15.3185 18.9969 15.7297 19.1673 15.8783 19.526L16.4165 20.8253C16.5651 21.1841 16.3948 21.5954 16.036 21.744H16.0359C15.6772 21.8926 15.2659 21.7222 15.1173 21.3634Z" fill="#002C5F"/>
</g>
<defs>
<clipPath id="clip0_1078_29198">
<rect width="24" height="24" fill="white"/>
</clipPath>
</defs>
</svg>
