<svg width="24" height="24" viewBox="0 0 24 24" fill="none" xmlns="http://www.w3.org/2000/svg">
<g clip-path="url(#clip0_1078_29209)">
<path d="M20.7951 20.1328C20.6009 19.7965 20.1709 19.6813 19.8346 19.8755L19.2655 20.204V19.5469C19.2655 19.1586 18.9507 18.8438 18.5624 18.8438C18.1741 18.8438 17.8592 19.1586 17.8592 19.5469V20.204L17.2901 19.8754C16.9539 19.6813 16.5238 19.7965 16.3297 20.1328C16.1355 20.469 16.2507 20.8991 16.587 21.0932L17.1561 21.4219L16.587 21.7505C16.2507 21.9446 16.1355 22.3747 16.3297 22.7109C16.5238 23.0472 16.9539 23.1624 17.2901 22.9683L17.8592 22.6397V23.2969C17.8592 23.6852 18.1741 24 18.5624 24C18.9507 24 19.2655 23.6852 19.2655 23.2969V22.6397L19.8346 22.9683C20.1709 23.1625 20.6009 23.0473 20.7951 22.711C20.9892 22.3747 20.874 21.9447 20.5377 21.7505L19.9686 21.4219L20.5377 21.0933C20.874 20.8991 20.9892 20.4691 20.7951 20.1328Z" fill="#002C5F"/>
<path d="M13.2721 19.8755L12.703 20.204V19.5469C12.703 19.1586 12.3882 18.8438 11.9999 18.8438C11.6116 18.8438 11.2967 19.1586 11.2967 19.5469V20.204L10.7276 19.8754C10.3914 19.6813 9.96132 19.7965 9.76717 20.1328C9.57301 20.469 9.68823 20.8991 10.0245 21.0932L10.5936 21.4219L10.0245 21.7505C9.68823 21.9446 9.57301 22.3747 9.76717 22.7109C9.96132 23.0472 10.3914 23.1624 10.7276 22.9683L11.2967 22.6397V23.2969C11.2967 23.6852 11.6116 24 11.9999 24C12.3882 24 12.703 23.6852 12.703 23.2969V22.6397L13.2721 22.9683C13.6084 23.1625 14.0384 23.0473 14.2326 22.711C14.4267 22.3747 14.3115 21.9447 13.9752 21.7505L13.4061 21.4219L13.9752 21.0933C14.3115 20.8991 14.4267 20.4691 14.2326 20.1328C14.0384 19.7965 13.6084 19.6813 13.2721 19.8755Z" fill="#002C5F"/>
<path d="M6.70961 19.8755L6.1405 20.204V19.5469C6.1405 19.1586 5.82568 18.8438 5.43737 18.8438C5.04906 18.8438 4.73425 19.1586 4.73425 19.5469V20.204L4.16514 19.8754C3.82886 19.6813 3.39882 19.7965 3.20467 20.1328C3.01051 20.469 3.12573 20.8991 3.46201 21.0932L4.03112 21.4219L3.46201 21.7505C3.12573 21.9446 3.01051 22.3747 3.20467 22.7109C3.39882 23.0472 3.82886 23.1624 4.16514 22.9683L4.73425 22.6397V23.2969C4.73425 23.6852 5.04906 24 5.43737 24C5.82568 24 6.1405 23.6852 6.1405 23.2969V22.6397L6.70961 22.9683C7.04589 23.1625 7.47592 23.0473 7.67007 22.711C7.86423 22.3747 7.74901 21.9447 7.41273 21.7505L6.84362 21.4219L7.41273 21.0933C7.74901 20.8991 7.86423 20.4691 7.67007 20.1328C7.47592 19.7965 7.04589 19.6813 6.70961 19.8755Z" fill="#002C5F"/>
<path d="M19.0781 16.875H4.92188C2.20795 16.875 0 14.667 0 11.9531C0 9.45187 1.87528 7.38047 4.2938 7.07114C4.6312 3.11559 7.95858 0 12 0C16.068 0 19.4169 3.11897 19.7535 7.07742C22.149 7.40761 24 9.46828 24 11.9531C24 14.667 21.792 16.875 19.0781 16.875Z" fill="#002C5F"/>
</g>
<defs>
<clipPath id="clip0_1078_29209">
<rect width="24" height="24" fill="white"/>
</clipPath>
</defs>
</svg>
