<svg width="24" height="24" viewBox="0 0 24 24" fill="none" xmlns="http://www.w3.org/2000/svg">
<g clip-path="url(#clip0_1078_29210)">
<path d="M2.18359 19.0425C2.25781 20.9095 4.92468 20.9089 4.99853 19.0425C4.99853 18.2652 3.59106 16.2275 3.59106 16.2275C3.59106 16.2275 2.18359 18.2651 2.18359 19.0425Z" fill="#002C5F"/>
<path d="M6.40625 22.561C6.48047 24.4281 9.14734 24.4274 9.22119 22.561C9.22119 21.7837 7.81372 19.7461 7.81372 19.7461C7.81372 19.7461 6.40625 21.7837 6.40625 22.561Z" fill="#002C5F"/>
<path d="M10.6289 19.0425C10.7031 20.9095 13.37 20.9089 13.4438 19.0425C13.4438 18.2652 12.0364 16.2275 12.0364 16.2275C12.0364 16.2275 10.6289 18.2651 10.6289 19.0425Z" fill="#002C5F"/>
<path d="M14.8516 22.561C14.9258 24.4281 17.5927 24.4274 17.6665 22.561C17.6665 21.7837 16.259 19.7461 16.259 19.7461C16.259 19.7461 14.8516 21.7837 14.8516 22.561Z" fill="#002C5F"/>
<path d="M19.0742 19.0425C19.1484 20.9095 21.8153 20.9089 21.8892 19.0425C21.8892 18.2652 20.4817 16.2275 20.4817 16.2275C20.4817 16.2275 19.0742 18.2651 19.0742 19.0425Z" fill="#002C5F"/>
<path fill-rule="evenodd" clip-rule="evenodd" d="M19.7535 7.28958C22.149 7.61977 24 9.68044 24 12.1653C24 14.5642 22.2748 16.5674 20 17.0002V16.9999H4V19.0217C3.97858 19.0155 3.95726 19.0082 3.93609 18.9999C3.57488 18.8573 3.39764 18.4489 3.54023 18.0877L3.97167 16.9948C1.71089 16.5508 0 14.5542 0 12.1653C0 9.66403 1.87528 7.59263 4.2938 7.2833C4.6312 3.32775 7.95858 0.212158 12 0.212158C16.068 0.212158 19.4169 3.33113 19.7535 7.28958Z" fill="#002C5F"/>
</g>
<defs>
<clipPath id="clip0_1078_29210">
<rect width="24" height="24" fill="white"/>
</clipPath>
</defs>
</svg>
