<svg width="24" height="24" viewBox="0 0 24 24" fill="none" xmlns="http://www.w3.org/2000/svg">
<g clip-path="url(#clip0_1078_29208)">
<path d="M6.70476 20.6807C6.34354 20.5381 5.93516 20.7153 5.79257 21.0765L5.01805 23.0386C4.87546 23.3998 5.05269 23.8082 5.41391 23.9507C5.77513 24.0933 6.18351 23.9161 6.3261 23.5549L7.10062 21.5928C7.24321 21.2316 7.06598 20.8232 6.70476 20.6807Z" fill="#002C5F"/>
<path d="M3.18913 20.6807C2.82791 20.5381 2.41954 20.7153 2.27694 21.0765L1.50243 23.0386C1.35984 23.3998 1.53707 23.8082 1.89829 23.9507C2.25951 24.0933 2.66788 23.9161 2.81048 23.5549L3.58499 21.5928C3.72759 21.2316 3.55035 20.8232 3.18913 20.6807Z" fill="#002C5F"/>
<path d="M10.2204 20.6807C9.85916 20.5381 9.45079 20.7153 9.3082 21.0765L8.53368 23.0386C8.39109 23.3998 8.56832 23.8082 8.92954 23.9507C9.29076 24.0933 9.69913 23.9161 9.84173 23.5549L10.6162 21.5928C10.7588 21.2316 10.5816 20.8232 10.2204 20.6807Z" fill="#002C5F"/>
<path d="M13.736 20.6807C13.3748 20.5381 12.9664 20.7153 12.8238 21.0765L12.0493 23.0386C11.9067 23.3998 12.0839 23.8082 12.4452 23.9507C12.8064 24.0933 13.2148 23.9161 13.3574 23.5549L14.1319 21.5928C14.2745 21.2316 14.0972 20.8232 13.736 20.6807Z" fill="#002C5F"/>
<path d="M17.2516 20.6807C16.8904 20.5381 16.482 20.7153 16.3394 21.0765L15.5649 23.0386C15.4223 23.3998 15.5996 23.8082 15.9608 23.9507C16.322 24.0933 16.7304 23.9161 16.873 23.5549L17.6475 21.5928C17.7901 21.2316 17.6129 20.8232 17.2516 20.6807Z" fill="#002C5F"/>
<path d="M24 11.9531C24 9.46828 22.149 7.40761 19.7535 7.07742C19.4169 3.11897 16.068 0 12 0C7.95858 0 4.6312 3.11559 4.2938 7.07114C1.87528 7.38047 0 9.45187 0 11.9531C0 14.3421 1.71089 16.3386 3.97167 16.7826L3.54023 17.8755C3.39764 18.2368 3.57488 18.6451 3.93609 18.7877C4.29731 18.9303 4.70569 18.7531 4.84828 18.3919L5.44706 16.875H7.45083L7.05586 17.8755C6.91327 18.2368 7.0905 18.6451 7.45172 18.7877C7.81294 18.9303 8.22131 18.7531 8.36391 18.3919L8.96269 16.875H10.9665L10.5715 17.8755C10.4289 18.2368 10.6061 18.6451 10.9673 18.7877C11.3286 18.9303 11.7369 18.7531 11.8795 18.3919L12.4783 16.875H14.4821L14.0871 17.8755C13.9445 18.2368 14.1217 18.6451 14.483 18.7877C14.8442 18.9303 15.2526 18.7531 15.3952 18.3919L15.9939 16.875H17.9977L17.6027 17.8755C17.4601 18.2368 17.6374 18.6451 17.9986 18.7877C18.3598 18.9303 18.7682 18.7531 18.9108 18.3919L19.5174 16.8552C22.0263 16.6322 24 14.519 24 11.9531Z" fill="#002C5F"/>
</g>
<defs>
<clipPath id="clip0_1078_29208">
<rect width="24" height="24" fill="white"/>
</clipPath>
</defs>
</svg>
