<svg width="40" height="18" viewBox="0 0 40 18" fill="none" xmlns="http://www.w3.org/2000/svg">
<rect width="40" height="18" fill="#00AAD2"/>
<path d="M8.508 4.444C7.128 4.444 6.252 4.792 6.252 5.476C6.252 6.16 7.128 6.508 8.508 6.508C9.912 6.508 10.776 6.16 10.776 5.476C10.776 4.792 9.912 4.444 8.508 4.444ZM8.508 7.768C6.132 7.768 4.536 6.88 4.536 5.476C4.536 4.084 6.132 3.184 8.508 3.184C10.896 3.184 12.48 4.084 12.48 5.476C12.48 6.88 10.896 7.768 8.508 7.768ZM6.288 10.528V12.58H12.432V13.84H4.68V10.528H6.288ZM3.516 8.344H13.524V9.604H9.42V11.5H7.8V9.604H3.516V8.344ZM16.1991 6.28C16.1991 7.132 16.7871 7.648 17.6031 7.648C18.4191 7.648 19.0191 7.132 19.0191 6.28C19.0191 5.416 18.4191 4.912 17.6031 4.912C16.7871 4.912 16.1991 5.416 16.1991 6.28ZM22.2111 5.68H20.4591C20.4951 5.872 20.5191 6.064 20.5191 6.28C20.5191 6.484 20.4951 6.676 20.4471 6.88H22.2111V5.68ZM22.2111 8.14H19.7511C19.2231 8.668 18.4671 8.98 17.6031 8.98C15.9711 8.98 14.6991 7.84 14.6991 6.28C14.6991 4.708 15.9711 3.568 17.6031 3.568C18.4911 3.568 19.2471 3.892 19.7751 4.42H22.2111V2.98H23.7951V9.46H22.2111V8.14ZM20.0511 12.82C21.5031 12.82 22.2831 12.508 22.2831 11.86C22.2831 11.212 21.5031 10.9 20.0511 10.9C18.5991 10.9 17.8311 11.212 17.8311 11.86C17.8311 12.508 18.5991 12.82 20.0511 12.82ZM20.0511 9.676C22.3911 9.676 23.8431 10.48 23.8431 11.86C23.8431 13.228 22.3911 14.032 20.0511 14.032C17.7231 14.032 16.2711 13.228 16.2711 11.86C16.2711 10.48 17.7231 9.676 20.0511 9.676ZM26.5541 7.564L26.0261 6.34C28.0781 6.16 29.1581 5.44 29.4341 4.696H26.5061V3.436H34.6781V4.696H31.7381C32.0141 5.44 33.0941 6.16 35.1581 6.34L34.6061 7.564C32.5301 7.384 31.1741 6.604 30.5861 5.56C29.9981 6.604 28.6421 7.384 26.5541 7.564ZM32.7941 12.04C32.7941 11.476 32.0381 11.236 30.5621 11.236C29.0861 11.236 28.3301 11.476 28.3301 12.04C28.3301 12.592 29.0861 12.832 30.5621 12.832C32.0381 12.832 32.7941 12.592 32.7941 12.04ZM35.5781 9.256H31.3781V10.072C33.2741 10.228 34.4021 10.912 34.4021 12.04C34.4021 13.312 32.9501 14.032 30.5621 14.032C28.1741 14.032 26.7341 13.312 26.7341 12.04C26.7341 10.9 27.8741 10.216 29.7941 10.06V9.256H25.5941V7.996H35.5781V9.256Z" fill="white"/>
</svg>
